  0
SECTION
  2
HEADER
  9
$ACADVER
  1
AC1018
  9
$ACADMAINTVER
 70
     0
  9
$DWGCODEPAGE
  3
ANSI_1252
  9
$INSBASE
 10
0.0
 20
0.0
 30
0.0
  9
$EXTMIN
 10
1.000000000000000E+20
 20
1.000000000000000E+20
 30
1.000000000000000E+20
  9
$EXTMAX
 10
-1.000000000000000E+20
 20
-1.000000000000000E+20
 30
-1.000000000000000E+20
  9
$LIMMIN
 10
0.0
 20
0.0
  9
$LIMMAX
 10
12.0
 20
9.0
  9
$ORTHOMODE
 70
     0
  9
$REGENMODE
 70
     1
  9
$FILLMODE
 70
     1
  9
$QTEXTMODE
 70
     0
  9
$MIRRTEXT
 70
     1
  9
$LTSCALE
 40
1.0
  9
$ATTMODE
 70
     1
  9
$TEXTSIZE
 40
0.2
  9
$TRACEWID
 40
0.05
  9
$TEXTSTYLE
  7
Standard
  9
$CLAYER
  8
0
  9
$CELTYPE
  6
ByLayer
  9
$CECOLOR
 62
   256
  9
$CELTSCALE
 40
1.0
  9
$DISPSILH
 70
     0
  9
$DIMSCALE
 40
1.0
  9
$DIMASZ
 40
0.18
  9
$DIMEXO
 40
0.0625
  9
$DIMDLI
 40
0.38
  9
$DIMRND
 40
0.0
  9
$DIMDLE
 40
0.0
  9
$DIMEXE
 40
0.18
  9
$DIMTP
 40
0.0
  9
$DIMTM
 40
0.0
  9
$DIMTXT
 40
0.18
  9
$DIMCEN
 40
0.09
  9
$DIMTSZ
 40
0.0
  9
$DIMTOL
 70
     0
  9
$DIMLIM
 70
     0
  9
$DIMTIH
 70
     1
  9
$DIMTOH
 70
     1
  9
$DIMSE1
 70
     0
  9
$DIMSE2
 70
     0
  9
$DIMTAD
 70
     0
  9
$DIMZIN
 70
     0
  9
$DIMBLK
  1

  9
$DIMASO
 70
     1
  9
$DIMSHO
 70
     1
  9
$DIMPOST
  1

  9
$DIMAPOST
  1

  9
$DIMALT
 70
     0
  9
$DIMALTD
 70
     2
  9
$DIMALTF
 40
25.4
  9
$DIMLFAC
 40
1.0
  9
$DIMTOFL
 70
     0
  9
$DIMTVP
 40
0.0
  9
$DIMTIX
 70
     0
  9
$DIMSOXD
 70
     0
  9
$DIMSAH
 70
     0
  9
$DIMBLK1
  1

  9
$DIMBLK2
  1

  9
$DIMSTYLE
  2
Standard
  9
$DIMCLRD
 70
     0
  9
$DIMCLRE
 70
     0
  9
$DIMCLRT
 70
     0
  9
$DIMTFAC
 40
1.0
  9
$DIMGAP
 40
0.09
  9
$DIMJUST
 70
     0
  9
$DIMSD1
 70
     0
  9
$DIMSD2
 70
     0
  9
$DIMTOLJ
 70
     1
  9
$DIMTZIN
 70
     0
  9
$DIMALTZ
 70
     0
  9
$DIMALTTZ
 70
     0
  9
$DIMUPT
 70
     0
  9
$DIMDEC
 70
     4
  9
$DIMTDEC
 70
     4
  9
$DIMALTU
 70
     2
  9
$DIMALTTD
 70
     2
  9
$DIMTXSTY
  7
Standard
  9
$DIMAUNIT
 70
     0
  9
$DIMADEC
 70
     0
  9
$DIMALTRND
 40
0.0
  9
$DIMAZIN
 70
     0
  9
$DIMDSEP
 70
    46
  9
$DIMATFIT
 70
     3
  9
$DIMFRAC
 70
     0
  9
$DIMLDRBLK
  1

  9
$DIMLUNIT
 70
     2
  9
$DIMLWD
 70
    -2
  9
$DIMLWE
 70
    -2
  9
$DIMTMOVE
 70
     0
  9
$LUNITS
 70
     2
  9
$LUPREC
 70
     4
  9
$SKETCHINC
 40
0.1
  9
$FILLETRAD
 40
0.5
  9
$AUNITS
 70
     0
  9
$AUPREC
 70
     0
  9
$MENU
  1
.
  9
$ELEVATION
 40
0.0
  9
$PELEVATION
 40
0.0
  9
$THICKNESS
 40
0.0
  9
$LIMCHECK
 70
     0
  9
$CHAMFERA
 40
0.5
  9
$CHAMFERB
 40
0.5
  9
$CHAMFERC
 40
1.0
  9
$CHAMFERD
 40
0.0
  9
$SKPOLY
 70
     0
  9
$TDCREATE
 40
2456266.432533356
  9
$TDUCREATE
 40
2456265.974200023
  9
$TDUPDATE
 40
2456266.432533368
  9
$TDUUPDATE
 40
2456265.974200035
  9
$TDINDWG
 40
0.0000000116
  9
$TDUSRTIMER
 40
0.0000000116
  9
$USRTIMER
 70
     1
  9
$ANGBASE
 50
0.0
  9
$ANGDIR
 70
     0
  9
$PDMODE
 70
     0
  9
$PDSIZE
 40
0.0
  9
$PLINEWID
 40
0.0
  9
$SPLFRAME
 70
     0
  9
$SPLINETYPE
 70
     6
  9
$SPLINESEGS
 70
     8
  9
$HANDSEED
  5
23A
  9
$SURFTAB1
 70
     6
  9
$SURFTAB2
 70
     6
  9
$SURFTYPE
 70
     6
  9
$SURFU
 70
     6
  9
$SURFV
 70
     6
  9
$UCSBASE
  2

  9
$UCSNAME
  2

  9
$UCSORG
 10
0.0
 20
0.0
 30
0.0
  9
$UCSXDIR
 10
1.0
 20
0.0
 30
0.0
  9
$UCSYDIR
 10
0.0
 20
1.0
 30
0.0
  9
$UCSORTHOREF
  2

  9
$UCSORTHOVIEW
 70
     0
  9
$UCSORGTOP
 10
0.0
 20
0.0
 30
0.0
  9
$UCSORGBOTTOM
 10
0.0
 20
0.0
 30
0.0
  9
$UCSORGLEFT
 10
0.0
 20
0.0
 30
0.0
  9
$UCSORGRIGHT
 10
0.0
 20
0.0
 30
0.0
  9
$UCSORGFRONT
 10
0.0
 20
0.0
 30
0.0
  9
$UCSORGBACK
 10
0.0
 20
0.0
 30
0.0
  9
$PUCSBASE
  2

  9
$PUCSNAME
  2

  9
$PUCSORG
 10
0.0
 20
0.0
 30
0.0
  9
$PUCSXDIR
 10
1.0
 20
0.0
 30
0.0
  9
$PUCSYDIR
 10
0.0
 20
1.0
 30
0.0
  9
$PUCSORTHOREF
  2

  9
$PUCSORTHOVIEW
 70
     0
  9
$PUCSORGTOP
 10
0.0
 20
0.0
 30
0.0
  9
$PUCSORGBOTTOM
 10
0.0
 20
0.0
 30
0.0
  9
$PUCSORGLEFT
 10
0.0
 20
0.0
 30
0.0
  9
$PUCSORGRIGHT
 10
0.0
 20
0.0
 30
0.0
  9
$PUCSORGFRONT
 10
0.0
 20
0.0
 30
0.0
  9
$PUCSORGBACK
 10
0.0
 20
0.0
 30
0.0
  9
$USERI1
 70
     0
  9
$USERI2
 70
     0
  9
$USERI3
 70
     0
  9
$USERI4
 70
     0
  9
$USERI5
 70
     0
  9
$USERR1
 40
0.0
  9
$USERR2
 40
0.0
  9
$USERR3
 40
0.0
  9
$USERR4
 40
0.0
  9
$USERR5
 40
0.0
  9
$WORLDVIEW
 70
     1
  9
$SHADEDGE
 70
     3
  9
$SHADEDIF
 70
    70
  9
$TILEMODE
 70
     1
  9
$MAXACTVP
 70
    64
  9
$PINSBASE
 10
0.0
 20
0.0
 30
0.0
  9
$PLIMCHECK
 70
     0
  9
$PEXTMIN
 10
1.000000000000000E+20
 20
1.000000000000000E+20
 30
1.000000000000000E+20
  9
$PEXTMAX
 10
-1.000000000000000E+20
 20
-1.000000000000000E+20
 30
-1.000000000000000E+20
  9
$PLIMMIN
 10
0.0
 20
0.0
  9
$PLIMMAX
 10
12.0
 20
9.0
  9
$UNITMODE
 70
     0
  9
$VISRETAIN
 70
     1
  9
$PLINEGEN
 70
     0
  9
$PSLTSCALE
 70
     1
  9
$TREEDEPTH
 70
  3020
  9
$CMLSTYLE
  2
Standard
  9
$CMLJUST
 70
     0
  9
$CMLSCALE
 40
1.0
  9
$PROXYGRAPHICS
 70
     1
  9
$MEASUREMENT
 70
     0
  9
$CELWEIGHT
370
    -1
  9
$ENDCAPS
280
     0
  9
$JOINSTYLE
280
     0
  9
$LWDISPLAY
290
     1
  9
$INSUNITS
 70
     0
  9
$HYPERLINKBASE
  1

  9
$STYLESHEET
  1

  9
$XEDIT
290
     1
  9
$CEPSNTYPE
380
     0
  9
$PSTYLEMODE
290
     1
  9
$FINGERPRINTGUID
  2
{FF042E60-F04A-4A46-A37C-3C05D39BF9BF}
  9
$VERSIONGUID
  2
{FAEB1C32-E019-11D5-929B-00C0DF256EC4}
  9
$EXTNAMES
290
     1
  9
$PSVPSCALE
 40
0.0
  9
$OLESTARTUP
290
     0
  9
$SORTENTS
280
   127
  9
$INDEXCTL
280
     0
  9
$HIDETEXT
280
     1
  9
$XCLIPFRAME
290
     0
  9
$HALOGAP
280
     0
  9
$OBSCOLOR
 70
   257
  9
$OBSLTYPE
280
     0
  9
$INTERSECTIONDISPLAY
280
     0
  9
$INTERSECTIONCOLOR
 70
   257
  9
$DIMASSOC
280
     2
  9
$PROJECTNAME
  1

  0
ENDSEC
  0
SECTION
  2
CLASSES
  0
CLASS
  1
ACDBDICTIONARYWDFLT
  2
AcDbDictionaryWithDefault
  3
ObjectDBX Classes
 90
        0
 91
        4
280
     0
281
     0
  0
CLASS
  1
VISUALSTYLE
  2
AcDbVisualStyle
  3
ObjectDBX Classes
 90
     4095
 91
        4
280
     0
281
     0
  0
CLASS
  1
MATERIAL
  2
AcDbMaterial
  3
ObjectDBX Classes
 90
     1153
 91
        4
280
     0
281
     0
  0
CLASS
  1
DICTIONARYVAR
  2
AcDbDictionaryVar
  3
ObjectDBX Classes
 90
        0
 91
        4
280
     0
281
     0
  0
ENDSEC
  0
SECTION
  2
TABLES
  0
TABLE
  2
VPORT
  5
8
330
0
100
AcDbSymbolTable
 70
     1
  0
VPORT
  5
29
330
8
100
AcDbSymbolTableRecord
100
AcDbViewportTableRecord
  2
*Active
 70
     0
 10
0.0
 20
0.0
 11
1.0
 21
1.0
 12
10.42990654205607
 22
4.5
 13
0.0
 23
0.0
 14
0.5
 24
0.5
 15
0.5
 25
0.5
 16
0.0
 26
0.0
 36
1.0
 17
0.0
 27
0.0
 37
0.0
 40
9.0
 41
1.972972972850329
 42
50.0
 43
0.0
 44
0.0
 50
0.0
 51
0.0
 71
     0
 72
   100
 73
     1
 74
     3
 75
     0
 76
     0
 77
     0
 78
     0
281
     0
 65
     1
110
0.0
120
0.0
130
0.0
111
1.0
121
0.0
131
0.0
112
0.0
122
1.0
132
0.0
 79
     0
146
0.0
  0
ENDTAB
  0
TABLE
  2
LTYPE
  5
5
330
0
100
AcDbSymbolTable
 70
     1
  0
LTYPE
  5
14
330
5
100
AcDbSymbolTableRecord
100
AcDbLinetypeTableRecord
  2
ByBlock
 70
     0
  3

 72
    65
 73
     0
 40
0.0
  0
LTYPE
  5
15
330
5
100
AcDbSymbolTableRecord
100
AcDbLinetypeTableRecord
  2
ByLayer
 70
     0
  3

 72
    65
 73
     0
 40
0.0
  0
LTYPE
  5
16
330
5
100
AcDbSymbolTableRecord
100
AcDbLinetypeTableRecord
  2
Continuous
 70
     0
  3
Solid line
 72
    65
 73
     0
 40
0.0
  0
ENDTAB
  0
TABLE
  2
LAYER
  5
2
330
0
100
AcDbSymbolTable
 70
     2
  0
LAYER
  5
10
330
2
100
AcDbSymbolTableRecord
100
AcDbLayerTableRecord
  2
0
 70
     0
 62
     7
  6
Continuous
370
    -3
390
F
  0
LAYER
  5
43
330
2
100
AcDbSymbolTableRecord
100
AcDbLayerTableRecord
  2
New_0
 70
     0
 62
     7
  6
Continuous
370
    -3
390
F
  0
ENDTAB
  0
TABLE
  2
STYLE
  5
3
330
0
100
AcDbSymbolTable
 70
     1
  0
STYLE
  5
11
330
3
100
AcDbSymbolTableRecord
100
AcDbTextStyleTableRecord
  2
Standard
 70
     0
 40
0.0
 41
1.0
 50
0.0
 71
     0
 42
0.2
  3
txt
  4
BIGFONT.SHX
  0
ENDTAB
  0
TABLE
  2
VIEW
  5
6
330
0
100
AcDbSymbolTable
 70
     0
  0
ENDTAB
  0
TABLE
  2
UCS
  5
7
330
0
100
AcDbSymbolTable
 70
     0
  0
ENDTAB
  0
TABLE
  2
APPID
  5
9
330
0
100
AcDbSymbolTable
 70
     1
  0
APPID
  5
12
330
9
100
AcDbSymbolTableRecord
100
AcDbRegAppTableRecord
  2
ACAD
 70
     0
  0
ENDTAB
  0
TABLE
  2
DIMSTYLE
  5
A
330
0
100
AcDbSymbolTable
 70
     1
100
AcDbDimStyleTable
  0
DIMSTYLE
105
27
330
A
100
AcDbSymbolTableRecord
100
AcDbDimStyleTableRecord
  2
Standard
 70
     0
340
11
  0
ENDTAB
  0
TABLE
  2
BLOCK_RECORD
  5
1
330
0
100
AcDbSymbolTable
 70
     2
  0
BLOCK_RECORD
  5
1F
330
1
100
AcDbSymbolTableRecord
100
AcDbBlockTableRecord
  2
*Model_Space
340
22
  0
BLOCK_RECORD
  5
1B
330
1
100
AcDbSymbolTableRecord
100
AcDbBlockTableRecord
  2
*Paper_Space
340
1E
  0
BLOCK_RECORD
  5
23
330
1
100
AcDbSymbolTableRecord
100
AcDbBlockTableRecord
  2
*Paper_Space0
340
26
  0
BLOCK_RECORD
  5
3F
330
1
100
AcDbSymbolTableRecord
100
AcDbBlockTableRecord
  2
Object_4
340
0
102
{BLKREFS
331
42
102
}
  0
ENDTAB
  0
ENDSEC
  0
SECTION
  2
BLOCKS
  0
BLOCK
  5
20
330
1F
100
AcDbEntity
  8
0
100
AcDbBlockBegin
  2
*Model_Space
 70
     0
 10
0.0
 20
0.0
 30
0.0
  3
*Model_Space
  1

  0
ENDBLK
  5
21
330
1F
100
AcDbEntity
  8
0
100
AcDbBlockEnd
  0
BLOCK
  5
1C
330
1B
100
AcDbEntity
 67
     1
  8
0
100
AcDbBlockBegin
  2
*Paper_Space
 70
     0
 10
0.0
 20
0.0
 30
0.0
  3
*Paper_Space
  1

  0
ENDBLK
  5
1D
330
1B
100
AcDbEntity
 67
     1
  8
0
100
AcDbBlockEnd
  0
BLOCK
  5
24
330
23
100
AcDbEntity
  8
0
100
AcDbBlockBegin
  2
*Paper_Space0
 70
     0
 10
0.0
 20
0.0
 30
0.0
  3
*Paper_Space0
  1

  0
ENDBLK
  5
25
330
23
100
AcDbEntity
  8
0
100
AcDbBlockEnd
  0
BLOCK
  5
40
330
3F
100
AcDbEntity
  8
0
100
AcDbBlockBegin
  2
Object_4
 70
     0
 10
0.0
 20
0.0
 30
0.0
  3
Object_4
  1

  0
POLYLINE
  5
44
330
3F
100
AcDbEntity
  8
New_0
 62
   254
420
 14079192
370
     0
100
AcDbPolyFaceMesh
 66
     1
 10
0.0
 20
0.0
 30
0.0
 70
    64
 71
   204
 72
   252
  0
VERTEX
  5
45
330
44
100
AcDbEntity
  8
New_0
 62
   254
420
 14079192
370
     0
100
AcDbVertex
100
AcDbPolyFaceMeshVertex
 10
460.0
 20
-80.5
 30
4465.0
 70
   192
  0
VERTEX
  5
46
330
44
100
AcDbEntity
  8
New_0
 62
   254
420
 14079192
370
     0
100
AcDbVertex
100
AcDbPolyFaceMeshVertex
 10
460.0
 20
80.5
 30
4465.0
 70
   192
  0
VERTEX
  5
47
330
44
100
AcDbEntity
  8
New_0
 62
   254
420
 14079192
370
     0
100
AcDbVertex
100
AcDbPolyFaceMeshVertex
 10
460.0
 20
80.5
 30
4497.0
 70
   192
  0
VERTEX
  5
48
330
44
100
AcDbEntity
  8
New_0
 62
   254
420
 14079192
370
     0
100
AcDbVertex
100
AcDbPolyFaceMeshVertex
 10
460.0
 20
-80.5
 30
4497.0
 70
   192
  0
VERTEX
  5
49
330
44
100
AcDbEntity
  8
New_0
 62
   254
420
 14079192
370
     0
100
AcDbVertex
100
AcDbPolyFaceMeshVertex
 10
-460.0
 20
80.5
 30
4465.0
 70
   192
  0
VERTEX
  5
4A
330
44
100
AcDbEntity
  8
New_0
 62
   254
420
 14079192
370
     0
100
AcDbVertex
100
AcDbPolyFaceMeshVertex
 10
-460.0
 20
80.5
 30
4497.0
 70
   192
  0
VERTEX
  5
4B
330
44
100
AcDbEntity
  8
New_0
 62
   254
420
 14079192
370
     0
100
AcDbVertex
100
AcDbPolyFaceMeshVertex
 10
-460.0
 20
-80.5
 30
4465.0
 70
   192
  0
VERTEX
  5
4C
330
44
100
AcDbEntity
  8
New_0
 62
   254
420
 14079192
370
     0
100
AcDbVertex
100
AcDbPolyFaceMeshVertex
 10
-460.0
 20
-80.5
 30
4497.0
 70
   192
  0
VERTEX
  5
4D
330
44
100
AcDbEntity
  8
New_0
 62
   254
420
 14079192
370
     0
100
AcDbVertex
100
AcDbPolyFaceMeshVertex
 10
462.0
 20
-82.5
 30
4465.0
 70
   192
  0
VERTEX
  5
4E
330
44
100
AcDbEntity
  8
New_0
 62
   254
420
 14079192
370
     0
100
AcDbVertex
100
AcDbPolyFaceMeshVertex
 10
462.0
 20
82.5
 30
4465.0
 70
   192
  0
VERTEX
  5
4F
330
44
100
AcDbEntity
  8
New_0
 62
   254
420
 14079192
370
     0
100
AcDbVertex
100
AcDbPolyFaceMeshVertex
 10
462.0
 20
82.5
 30
4476.999999999999
 70
   192
  0
VERTEX
  5
50
330
44
100
AcDbEntity
  8
New_0
 62
   254
420
 14079192
370
     0
100
AcDbVertex
100
AcDbPolyFaceMeshVertex
 10
462.0
 20
-82.5
 30
4476.999999999999
 70
   192
  0
VERTEX
  5
51
330
44
100
AcDbEntity
  8
New_0
 62
   254
420
 14079192
370
     0
100
AcDbVertex
100
AcDbPolyFaceMeshVertex
 10
-462.0
 20
82.5
 30
4465.0
 70
   192
  0
VERTEX
  5
52
330
44
100
AcDbEntity
  8
New_0
 62
   254
420
 14079192
370
     0
100
AcDbVertex
100
AcDbPolyFaceMeshVertex
 10
-462.0
 20
82.5
 30
4476.999999999999
 70
   192
  0
VERTEX
  5
53
330
44
100
AcDbEntity
  8
New_0
 62
   254
420
 14079192
370
     0
100
AcDbVertex
100
AcDbPolyFaceMeshVertex
 10
-462.0
 20
-82.5
 30
4465.0
 70
   192
  0
VERTEX
  5
54
330
44
100
AcDbEntity
  8
New_0
 62
   254
420
 14079192
370
     0
100
AcDbVertex
100
AcDbPolyFaceMeshVertex
 10
-462.0
 20
-82.5
 30
4476.999999999999
 70
   192
  0
VERTEX
  5
55
330
44
100
AcDbEntity
  8
New_0
 62
   254
420
 14079192
370
     0
100
AcDbVertex
100
AcDbPolyFaceMeshVertex
 10
460.0
 20
-80.5
 30
4449.0
 70
   192
  0
VERTEX
  5
56
330
44
100
AcDbEntity
  8
New_0
 62
   254
420
 14079192
370
     0
100
AcDbVertex
100
AcDbPolyFaceMeshVertex
 10
460.0
 20
80.5
 30
4449.0
 70
   192
  0
VERTEX
  5
57
330
44
100
AcDbEntity
  8
New_0
 62
   254
420
 14079192
370
     0
100
AcDbVertex
100
AcDbPolyFaceMeshVertex
 10
460.0
 20
80.5
 30
4465.0
 70
   192
  0
VERTEX
  5
58
330
44
100
AcDbEntity
  8
New_0
 62
   254
420
 14079192
370
     0
100
AcDbVertex
100
AcDbPolyFaceMeshVertex
 10
460.0
 20
-80.5
 30
4465.0
 70
   192
  0
VERTEX
  5
59
330
44
100
AcDbEntity
  8
New_0
 62
   254
420
 14079192
370
     0
100
AcDbVertex
100
AcDbPolyFaceMeshVertex
 10
-460.0
 20
80.5
 30
4449.0
 70
   192
  0
VERTEX
  5
5A
330
44
100
AcDbEntity
  8
New_0
 62
   254
420
 14079192
370
     0
100
AcDbVertex
100
AcDbPolyFaceMeshVertex
 10
-460.0
 20
80.5
 30
4465.0
 70
   192
  0
VERTEX
  5
5B
330
44
100
AcDbEntity
  8
New_0
 62
   254
420
 14079192
370
     0
100
AcDbVertex
100
AcDbPolyFaceMeshVertex
 10
-460.0
 20
-80.5
 30
4449.0
 70
   192
  0
VERTEX
  5
5C
330
44
100
AcDbEntity
  8
New_0
 62
   254
420
 14079192
370
     0
100
AcDbVertex
100
AcDbPolyFaceMeshVertex
 10
-460.0
 20
-80.5
 30
4465.0
 70
   192
  0
VERTEX
  5
5D
330
44
100
AcDbEntity
  8
New_0
 62
   254
420
 14079192
370
     0
100
AcDbVertex
100
AcDbPolyFaceMeshVertex
 10
-275.0
 20
-58.0
 30
4600.0
 70
   192
  0
VERTEX
  5
5E
330
44
100
AcDbEntity
  8
New_0
 62
   254
420
 14079192
370
     0
100
AcDbVertex
100
AcDbPolyFaceMeshVertex
 10
-275.0
 20
-12.5
 30
4580.999999999999
 70
   192
  0
VERTEX
  5
5F
330
44
100
AcDbEntity
  8
New_0
 62
   254
420
 14079192
370
     0
100
AcDbVertex
100
AcDbPolyFaceMeshVertex
 10
-273.0
 20
-12.5
 30
4580.999999999999
 70
   192
  0
VERTEX
  5
60
330
44
100
AcDbEntity
  8
New_0
 62
   254
420
 14079192
370
     0
100
AcDbVertex
100
AcDbPolyFaceMeshVertex
 10
-273.0
 20
-58.0
 30
4600.0
 70
   192
  0
VERTEX
  5
61
330
44
100
AcDbEntity
  8
New_0
 62
   254
420
 14079192
370
     0
100
AcDbVertex
100
AcDbPolyFaceMeshVertex
 10
-275.0
 20
-12.5
 30
4529.999999999999
 70
   192
  0
VERTEX
  5
62
330
44
100
AcDbEntity
  8
New_0
 62
   254
420
 14079192
370
     0
100
AcDbVertex
100
AcDbPolyFaceMeshVertex
 10
-273.0
 20
-12.5
 30
4529.999999999999
 70
   192
  0
VERTEX
  5
63
330
44
100
AcDbEntity
  8
New_0
 62
   254
420
 14079192
370
     0
100
AcDbVertex
100
AcDbPolyFaceMeshVertex
 10
-275.0
 20
12.5
 30
4529.999999999999
 70
   192
  0
VERTEX
  5
64
330
44
100
AcDbEntity
  8
New_0
 62
   254
420
 14079192
370
     0
100
AcDbVertex
100
AcDbPolyFaceMeshVertex
 10
-273.0
 20
12.5
 30
4529.999999999999
 70
   192
  0
VERTEX
  5
65
330
44
100
AcDbEntity
  8
New_0
 62
   254
420
 14079192
370
     0
100
AcDbVertex
100
AcDbPolyFaceMeshVertex
 10
-275.0
 20
12.5
 30
4580.999999999999
 70
   192
  0
VERTEX
  5
66
330
44
100
AcDbEntity
  8
New_0
 62
   254
420
 14079192
370
     0
100
AcDbVertex
100
AcDbPolyFaceMeshVertex
 10
-273.0
 20
12.5
 30
4580.999999999999
 70
   192
  0
VERTEX
  5
67
330
44
100
AcDbEntity
  8
New_0
 62
   254
420
 14079192
370
     0
100
AcDbVertex
100
AcDbPolyFaceMeshVertex
 10
-275.0
 20
58.0
 30
4600.0
 70
   192
  0
VERTEX
  5
68
330
44
100
AcDbEntity
  8
New_0
 62
   254
420
 14079192
370
     0
100
AcDbVertex
100
AcDbPolyFaceMeshVertex
 10
-273.0
 20
58.0
 30
4600.0
 70
   192
  0
VERTEX
  5
69
330
44
100
AcDbEntity
  8
New_0
 62
   254
420
 14079192
370
     0
100
AcDbVertex
100
AcDbPolyFaceMeshVertex
 10
-283.0000000000001
 20
-58.0
 30
4600.0
 70
   192
  0
VERTEX
  5
6A
330
44
100
AcDbEntity
  8
New_0
 62
   254
420
 14079192
370
     0
100
AcDbVertex
100
AcDbPolyFaceMeshVertex
 10
-283.0000000000001
 20
-53.00000000000001
 30
4598.0
 70
   192
  0
VERTEX
  5
6B
330
44
100
AcDbEntity
  8
New_0
 62
   254
420
 14079192
370
     0
100
AcDbVertex
100
AcDbPolyFaceMeshVertex
 10
-275.0
 20
-53.00000000000001
 30
4598.0
 70
   192
  0
VERTEX
  5
6C
330
44
100
AcDbEntity
  8
New_0
 62
   254
420
 14079192
370
     0
100
AcDbVertex
100
AcDbPolyFaceMeshVertex
 10
-275.0
 20
-58.0
 30
4600.0
 70
   192
  0
VERTEX
  5
6D
330
44
100
AcDbEntity
  8
New_0
 62
   254
420
 14079192
370
     0
100
AcDbVertex
100
AcDbPolyFaceMeshVertex
 10
-283.0000000000001
 20
53.00000000000001
 30
4598.0
 70
   192
  0
VERTEX
  5
6E
330
44
100
AcDbEntity
  8
New_0
 62
   254
420
 14079192
370
     0
100
AcDbVertex
100
AcDbPolyFaceMeshVertex
 10
-275.0
 20
53.00000000000001
 30
4598.0
 70
   192
  0
VERTEX
  5
6F
330
44
100
AcDbEntity
  8
New_0
 62
   254
420
 14079192
370
     0
100
AcDbVertex
100
AcDbPolyFaceMeshVertex
 10
-283.0000000000001
 20
58.0
 30
4600.0
 70
   192
  0
VERTEX
  5
70
330
44
100
AcDbEntity
  8
New_0
 62
   254
420
 14079192
370
     0
100
AcDbVertex
100
AcDbPolyFaceMeshVertex
 10
-275.0
 20
58.0
 30
4600.0
 70
   192
  0
VERTEX
  5
71
330
44
100
AcDbEntity
  8
New_0
 62
   254
420
 14079192
370
     0
100
AcDbVertex
100
AcDbPolyFaceMeshVertex
 10
-273.0
 20
58.00000000000001
 30
4523.0
 70
   192
  0
VERTEX
  5
72
330
44
100
AcDbEntity
  8
New_0
 62
   254
420
 14079192
370
     0
100
AcDbVertex
100
AcDbPolyFaceMeshVertex
 10
-273.0
 20
12.5
 30
4542.0
 70
   192
  0
VERTEX
  5
73
330
44
100
AcDbEntity
  8
New_0
 62
   254
420
 14079192
370
     0
100
AcDbVertex
100
AcDbPolyFaceMeshVertex
 10
-271.0
 20
12.5
 30
4542.0
 70
   192
  0
VERTEX
  5
74
330
44
100
AcDbEntity
  8
New_0
 62
   254
420
 14079192
370
     0
100
AcDbVertex
100
AcDbPolyFaceMeshVertex
 10
-271.0
 20
58.00000000000001
 30
4523.0
 70
   192
  0
VERTEX
  5
75
330
44
100
AcDbEntity
  8
New_0
 62
   254
420
 14079192
370
     0
100
AcDbVertex
100
AcDbPolyFaceMeshVertex
 10
-273.0
 20
12.34610425743923
 30
4543.955430813003
 70
   192
  0
VERTEX
  5
76
330
44
100
AcDbEntity
  8
New_0
 62
   254
420
 14079192
370
     0
100
AcDbVertex
100
AcDbPolyFaceMeshVertex
 10
-271.0
 20
12.34610425743923
 30
4543.955430813003
 70
   192
  0
VERTEX
  5
77
330
44
100
AcDbEntity
  8
New_0
 62
   254
420
 14079192
370
     0
100
AcDbVertex
100
AcDbPolyFaceMeshVertex
 10
-273.0
 20
11.88820645368942
 30
4545.862712429686
 70
   192
  0
VERTEX
  5
78
330
44
100
AcDbEntity
  8
New_0
 62
   254
420
 14079192
370
     0
100
AcDbVertex
100
AcDbPolyFaceMeshVertex
 10
-271.0
 20
11.88820645368942
 30
4545.862712429686
 70
   192
  0
VERTEX
  5
79
330
44
100
AcDbEntity
  8
New_0
 62
   254
420
 14079192
370
     0
100
AcDbVertex
100
AcDbPolyFaceMeshVertex
 10
-273.0
 20
11.1375815523546
 30
4547.674881246744
 70
   192
  0
VERTEX
  5
7A
330
44
100
AcDbEntity
  8
New_0
 62
   254
420
 14079192
370
     0
100
AcDbVertex
100
AcDbPolyFaceMeshVertex
 10
-271.0
 20
11.1375815523546
 30
4547.674881246744
 70
   192
  0
VERTEX
  5
7B
330
44
100
AcDbEntity
  8
New_0
 62
   254
420
 14079192
370
     0
100
AcDbVertex
100
AcDbPolyFaceMeshVertex
 10
-273.0
 20
10.11271242968685
 30
4549.347315653656
 70
   192
  0
VERTEX
  5
7C
330
44
100
AcDbEntity
  8
New_0
 62
   254
420
 14079192
370
     0
100
AcDbVertex
100
AcDbPolyFaceMeshVertex
 10
-271.0
 20
10.11271242968685
 30
4549.347315653656
 70
   192
  0
VERTEX
  5
7D
330
44
100
AcDbEntity
  8
New_0
 62
   254
420
 14079192
370
     0
100
AcDbVertex
100
AcDbPolyFaceMeshVertex
 10
-273.0
 20
8.83883476483185
 30
4550.838834764832
 70
   192
  0
VERTEX
  5
7E
330
44
100
AcDbEntity
  8
New_0
 62
   254
420
 14079192
370
     0
100
AcDbVertex
100
AcDbPolyFaceMeshVertex
 10
-271.0
 20
8.83883476483185
 30
4550.838834764832
 70
   192
  0
VERTEX
  5
7F
330
44
100
AcDbEntity
  8
New_0
 62
   254
420
 14079192
370
     0
100
AcDbVertex
100
AcDbPolyFaceMeshVertex
 10
-273.0
 20
7.347315653655921
 30
4552.112712429686
 70
   192
  0
VERTEX
  5
80
330
44
100
AcDbEntity
  8
New_0
 62
   254
420
 14079192
370
     0
100
AcDbVertex
100
AcDbPolyFaceMeshVertex
 10
-271.0
 20
7.347315653655921
 30
4552.112712429686
 70
   192
  0
VERTEX
  5
81
330
44
100
AcDbEntity
  8
New_0
 62
   254
420
 14079192
370
     0
100
AcDbVertex
100
AcDbPolyFaceMeshVertex
 10
-273.0
 20
5.674881246744341
 30
4553.137581552354
 70
   192
  0
VERTEX
  5
82
330
44
100
AcDbEntity
  8
New_0
 62
   254
420
 14079192
370
     0
100
AcDbVertex
100
AcDbPolyFaceMeshVertex
 10
-271.0
 20
5.674881246744341
 30
4553.137581552354
 70
   192
  0
VERTEX
  5
83
330
44
100
AcDbEntity
  8
New_0
 62
   254
420
 14079192
370
     0
100
AcDbVertex
100
AcDbPolyFaceMeshVertex
 10
-273.0
 20
3.862712429686848
 30
4553.888206453689
 70
   192
  0
VERTEX
  5
84
330
44
100
AcDbEntity
  8
New_0
 62
   254
420
 14079192
370
     0
100
AcDbVertex
100
AcDbPolyFaceMeshVertex
 10
-271.0
 20
3.862712429686848
 30
4553.888206453689
 70
   192
  0
VERTEX
  5
85
330
44
100
AcDbEntity
  8
New_0
 62
   254
420
 14079192
370
     0
100
AcDbVertex
100
AcDbPolyFaceMeshVertex
 10
-273.0
 20
1.955430813002891
 30
4554.346104257439
 70
   192
  0
VERTEX
  5
86
330
44
100
AcDbEntity
  8
New_0
 62
   254
420
 14079192
370
     0
100
AcDbVertex
100
AcDbPolyFaceMeshVertex
 10
-271.0
 20
1.955430813002891
 30
4554.346104257439
 70
   192
  0
VERTEX
  5
87
330
44
100
AcDbEntity
  8
New_0
 62
   254
420
 14079192
370
     0
100
AcDbVertex
100
AcDbPolyFaceMeshVertex
 10
-273.0
 20
0.0000000000000029
 30
4554.5
 70
   192
  0
VERTEX
  5
88
330
44
100
AcDbEntity
  8
New_0
 62
   254
420
 14079192
370
     0
100
AcDbVertex
100
AcDbPolyFaceMeshVertex
 10
-271.0
 20
0.000000000000003
 30
4554.5
 70
   192
  0
VERTEX
  5
89
330
44
100
AcDbEntity
  8
New_0
 62
   254
420
 14079192
370
     0
100
AcDbVertex
100
AcDbPolyFaceMeshVertex
 10
-273.0
 20
-1.955430813002881
 30
4554.346104257439
 70
   192
  0
VERTEX
  5
8A
330
44
100
AcDbEntity
  8
New_0
 62
   254
420
 14079192
370
     0
100
AcDbVertex
100
AcDbPolyFaceMeshVertex
 10
-271.0
 20
-1.955430813002881
 30
4554.346104257439
 70
   192
  0
VERTEX
  5
8B
330
44
100
AcDbEntity
  8
New_0
 62
   254
420
 14079192
370
     0
100
AcDbVertex
100
AcDbPolyFaceMeshVertex
 10
-273.0
 20
-3.86271242968684
 30
4553.888206453689
 70
   192
  0
VERTEX
  5
8C
330
44
100
AcDbEntity
  8
New_0
 62
   254
420
 14079192
370
     0
100
AcDbVertex
100
AcDbPolyFaceMeshVertex
 10
-271.0
 20
-3.86271242968684
 30
4553.888206453689
 70
   192
  0
VERTEX
  5
8D
330
44
100
AcDbEntity
  8
New_0
 62
   254
420
 14079192
370
     0
100
AcDbVertex
100
AcDbPolyFaceMeshVertex
 10
-273.0
 20
-5.674881246744332
 30
4553.137581552354
 70
   192
  0
VERTEX
  5
8E
330
44
100
AcDbEntity
  8
New_0
 62
   254
420
 14079192
370
     0
100
AcDbVertex
100
AcDbPolyFaceMeshVertex
 10
-271.0
 20
-5.674881246744332
 30
4553.137581552354
 70
   192
  0
VERTEX
  5
8F
330
44
100
AcDbEntity
  8
New_0
 62
   254
420
 14079192
370
     0
100
AcDbVertex
100
AcDbPolyFaceMeshVertex
 10
-273.0
 20
-7.347315653655912
 30
4552.112712429686
 70
   192
  0
VERTEX
  5
90
330
44
100
AcDbEntity
  8
New_0
 62
   254
420
 14079192
370
     0
100
AcDbVertex
100
AcDbPolyFaceMeshVertex
 10
-271.0
 20
-7.347315653655912
 30
4552.112712429686
 70
   192
  0
VERTEX
  5
91
330
44
100
AcDbEntity
  8
New_0
 62
   254
420
 14079192
370
     0
100
AcDbVertex
100
AcDbPolyFaceMeshVertex
 10
-273.0
 20
-8.838834764831843
 30
4550.838834764832
 70
   192
  0
VERTEX
  5
92
330
44
100
AcDbEntity
  8
New_0
 62
   254
420
 14079192
370
     0
100
AcDbVertex
100
AcDbPolyFaceMeshVertex
 10
-271.0
 20
-8.838834764831843
 30
4550.838834764832
 70
   192
  0
VERTEX
  5
93
330
44
100
AcDbEntity
  8
New_0
 62
   254
420
 14079192
370
     0
100
AcDbVertex
100
AcDbPolyFaceMeshVertex
 10
-273.0
 20
-10.11271242968684
 30
4549.347315653656
 70
   192
  0
VERTEX
  5
94
330
44
100
AcDbEntity
  8
New_0
 62
   254
420
 14079192
370
     0
100
AcDbVertex
100
AcDbPolyFaceMeshVertex
 10
-271.0
 20
-10.11271242968684
 30
4549.347315653656
 70
   192
  0
VERTEX
  5
95
330
44
100
AcDbEntity
  8
New_0
 62
   254
420
 14079192
370
     0
100
AcDbVertex
100
AcDbPolyFaceMeshVertex
 10
-273.0
 20
-11.1375815523546
 30
4547.674881246744
 70
   192
  0
VERTEX
  5
96
330
44
100
AcDbEntity
  8
New_0
 62
   254
420
 14079192
370
     0
100
AcDbVertex
100
AcDbPolyFaceMeshVertex
 10
-271.0
 20
-11.1375815523546
 30
4547.674881246744
 70
   192
  0
VERTEX
  5
97
330
44
100
AcDbEntity
  8
New_0
 62
   254
420
 14079192
370
     0
100
AcDbVertex
100
AcDbPolyFaceMeshVertex
 10
-273.0
 20
-11.88820645368942
 30
4545.862712429686
 70
   192
  0
VERTEX
  5
98
330
44
100
AcDbEntity
  8
New_0
 62
   254
420
 14079192
370
     0
100
AcDbVertex
100
AcDbPolyFaceMeshVertex
 10
-271.0
 20
-11.88820645368942
 30
4545.862712429686
 70
   192
  0
VERTEX
  5
99
330
44
100
AcDbEntity
  8
New_0
 62
   254
420
 14079192
370
     0
100
AcDbVertex
100
AcDbPolyFaceMeshVertex
 10
-273.0
 20
-12.34610425743923
 30
4543.955430813003
 70
   192
  0
VERTEX
  5
9A
330
44
100
AcDbEntity
  8
New_0
 62
   254
420
 14079192
370
     0
100
AcDbVertex
100
AcDbPolyFaceMeshVertex
 10
-271.0
 20
-12.34610425743923
 30
4543.955430813003
 70
   192
  0
VERTEX
  5
9B
330
44
100
AcDbEntity
  8
New_0
 62
   254
420
 14079192
370
     0
100
AcDbVertex
100
AcDbPolyFaceMeshVertex
 10
-273.0
 20
-12.50000000000001
 30
4542.0
 70
   192
  0
VERTEX
  5
9C
330
44
100
AcDbEntity
  8
New_0
 62
   254
420
 14079192
370
     0
100
AcDbVertex
100
AcDbPolyFaceMeshVertex
 10
-271.0
 20
-12.50000000000001
 30
4542.0
 70
   192
  0
VERTEX
  5
9D
330
44
100
AcDbEntity
  8
New_0
 62
   254
420
 14079192
370
     0
100
AcDbVertex
100
AcDbPolyFaceMeshVertex
 10
-273.0
 20
-57.99999999999999
 30
4523.0
 70
   192
  0
VERTEX
  5
9E
330
44
100
AcDbEntity
  8
New_0
 62
   254
420
 14079192
370
     0
100
AcDbVertex
100
AcDbPolyFaceMeshVertex
 10
-271.0
 20
-57.99999999999999
 30
4523.0
 70
   192
  0
VERTEX
  5
9F
330
44
100
AcDbEntity
  8
New_0
 62
   254
420
 14079192
370
     0
100
AcDbVertex
100
AcDbPolyFaceMeshVertex
 10
-273.0
 20
40.00000000000001
 30
4497.0
 70
   192
  0
VERTEX
  5
A0
330
44
100
AcDbEntity
  8
New_0
 62
   254
420
 14079192
370
     0
100
AcDbVertex
100
AcDbPolyFaceMeshVertex
 10
-273.0
 20
58.00000000000001
 30
4497.0
 70
   192
  0
VERTEX
  5
A1
330
44
100
AcDbEntity
  8
New_0
 62
   254
420
 14079192
370
     0
100
AcDbVertex
100
AcDbPolyFaceMeshVertex
 10
-263.0
 20
58.00000000000001
 30
4497.0
 70
   192
  0
VERTEX
  5
A2
330
44
100
AcDbEntity
  8
New_0
 62
   254
420
 14079192
370
     0
100
AcDbVertex
100
AcDbPolyFaceMeshVertex
 10
-263.0
 20
40.00000000000001
 30
4497.0
 70
   192
  0
VERTEX
  5
A3
330
44
100
AcDbEntity
  8
New_0
 62
   254
420
 14079192
370
     0
100
AcDbVertex
100
AcDbPolyFaceMeshVertex
 10
-273.0
 20
58.00000000000001
 30
4523.0
 70
   192
  0
VERTEX
  5
A4
330
44
100
AcDbEntity
  8
New_0
 62
   254
420
 14079192
370
     0
100
AcDbVertex
100
AcDbPolyFaceMeshVertex
 10
-263.0
 20
58.00000000000001
 30
4523.0
 70
   192
  0
VERTEX
  5
A5
330
44
100
AcDbEntity
  8
New_0
 62
   254
420
 14079192
370
     0
100
AcDbVertex
100
AcDbPolyFaceMeshVertex
 10
-273.0
 20
-57.99999999999999
 30
4523.0
 70
   192
  0
VERTEX
  5
A6
330
44
100
AcDbEntity
  8
New_0
 62
   254
420
 14079192
370
     0
100
AcDbVertex
100
AcDbPolyFaceMeshVertex
 10
-263.0
 20
-57.99999999999999
 30
4523.0
 70
   192
  0
VERTEX
  5
A7
330
44
100
AcDbEntity
  8
New_0
 62
   254
420
 14079192
370
     0
100
AcDbVertex
100
AcDbPolyFaceMeshVertex
 10
-273.0
 20
-57.99999999999999
 30
4497.0
 70
   192
  0
VERTEX
  5
A8
330
44
100
AcDbEntity
  8
New_0
 62
   254
420
 14079192
370
     0
100
AcDbVertex
100
AcDbPolyFaceMeshVertex
 10
-263.0
 20
-57.99999999999999
 30
4497.0
 70
   192
  0
VERTEX
  5
A9
330
44
100
AcDbEntity
  8
New_0
 62
   254
420
 14079192
370
     0
100
AcDbVertex
100
AcDbPolyFaceMeshVertex
 10
-273.0
 20
-39.99999999999999
 30
4497.0
 70
   192
  0
VERTEX
  5
AA
330
44
100
AcDbEntity
  8
New_0
 62
   254
420
 14079192
370
     0
100
AcDbVertex
100
AcDbPolyFaceMeshVertex
 10
-263.0
 20
-39.99999999999999
 30
4497.0
 70
   192
  0
VERTEX
  5
AB
330
44
100
AcDbEntity
  8
New_0
 62
   254
420
 14079192
370
     0
100
AcDbVertex
100
AcDbPolyFaceMeshVertex
 10
-273.0
 20
-39.99999999999999
 30
4499.0
 70
   192
  0
VERTEX
  5
AC
330
44
100
AcDbEntity
  8
New_0
 62
   254
420
 14079192
370
     0
100
AcDbVertex
100
AcDbPolyFaceMeshVertex
 10
-263.0
 20
-39.99999999999999
 30
4499.0
 70
   192
  0
VERTEX
  5
AD
330
44
100
AcDbEntity
  8
New_0
 62
   254
420
 14079192
370
     0
100
AcDbVertex
100
AcDbPolyFaceMeshVertex
 10
-273.0
 20
-55.99999999999999
 30
4499.0
 70
   192
  0
VERTEX
  5
AE
330
44
100
AcDbEntity
  8
New_0
 62
   254
420
 14079192
370
     0
100
AcDbVertex
100
AcDbPolyFaceMeshVertex
 10
-263.0
 20
-55.99999999999999
 30
4499.0
 70
   192
  0
VERTEX
  5
AF
330
44
100
AcDbEntity
  8
New_0
 62
   254
420
 14079192
370
     0
100
AcDbVertex
100
AcDbPolyFaceMeshVertex
 10
-273.0
 20
-55.99999999999999
 30
4521.0
 70
   192
  0
VERTEX
  5
B0
330
44
100
AcDbEntity
  8
New_0
 62
   254
420
 14079192
370
     0
100
AcDbVertex
100
AcDbPolyFaceMeshVertex
 10
-263.0
 20
-55.99999999999999
 30
4521.0
 70
   192
  0
VERTEX
  5
B1
330
44
100
AcDbEntity
  8
New_0
 62
   254
420
 14079192
370
     0
100
AcDbVertex
100
AcDbPolyFaceMeshVertex
 10
-273.0
 20
56.00000000000001
 30
4521.0
 70
   192
  0
VERTEX
  5
B2
330
44
100
AcDbEntity
  8
New_0
 62
   254
420
 14079192
370
     0
100
AcDbVertex
100
AcDbPolyFaceMeshVertex
 10
-263.0
 20
56.00000000000001
 30
4521.0
 70
   192
  0
VERTEX
  5
B3
330
44
100
AcDbEntity
  8
New_0
 62
   254
420
 14079192
370
     0
100
AcDbVertex
100
AcDbPolyFaceMeshVertex
 10
-273.0
 20
56.00000000000001
 30
4499.0
 70
   192
  0
VERTEX
  5
B4
330
44
100
AcDbEntity
  8
New_0
 62
   254
420
 14079192
370
     0
100
AcDbVertex
100
AcDbPolyFaceMeshVertex
 10
-263.0
 20
56.00000000000001
 30
4499.0
 70
   192
  0
VERTEX
  5
B5
330
44
100
AcDbEntity
  8
New_0
 62
   254
420
 14079192
370
     0
100
AcDbVertex
100
AcDbPolyFaceMeshVertex
 10
-273.0
 20
40.00000000000001
 30
4499.0
 70
   192
  0
VERTEX
  5
B6
330
44
100
AcDbEntity
  8
New_0
 62
   254
420
 14079192
370
     0
100
AcDbVertex
100
AcDbPolyFaceMeshVertex
 10
-263.0
 20
40.00000000000001
 30
4499.0
 70
   192
  0
VERTEX
  5
B7
330
44
100
AcDbEntity
  8
New_0
 62
   254
420
 14079192
370
     0
100
AcDbVertex
100
AcDbPolyFaceMeshVertex
 10
275.0
 20
-58.0
 30
4600.0
 70
   192
  0
VERTEX
  5
B8
330
44
100
AcDbEntity
  8
New_0
 62
   254
420
 14079192
370
     0
100
AcDbVertex
100
AcDbPolyFaceMeshVertex
 10
275.0
 20
-12.5
 30
4580.999999999999
 70
   192
  0
VERTEX
  5
B9
330
44
100
AcDbEntity
  8
New_0
 62
   254
420
 14079192
370
     0
100
AcDbVertex
100
AcDbPolyFaceMeshVertex
 10
277.0
 20
-12.5
 30
4580.999999999999
 70
   192
  0
VERTEX
  5
BA
330
44
100
AcDbEntity
  8
New_0
 62
   254
420
 14079192
370
     0
100
AcDbVertex
100
AcDbPolyFaceMeshVertex
 10
277.0
 20
-58.0
 30
4600.0
 70
   192
  0
VERTEX
  5
BB
330
44
100
AcDbEntity
  8
New_0
 62
   254
420
 14079192
370
     0
100
AcDbVertex
100
AcDbPolyFaceMeshVertex
 10
275.0
 20
-12.5
 30
4529.999999999999
 70
   192
  0
VERTEX
  5
BC
330
44
100
AcDbEntity
  8
New_0
 62
   254
420
 14079192
370
     0
100
AcDbVertex
100
AcDbPolyFaceMeshVertex
 10
277.0
 20
-12.5
 30
4529.999999999999
 70
   192
  0
VERTEX
  5
BD
330
44
100
AcDbEntity
  8
New_0
 62
   254
420
 14079192
370
     0
100
AcDbVertex
100
AcDbPolyFaceMeshVertex
 10
275.0
 20
12.5
 30
4529.999999999999
 70
   192
  0
VERTEX
  5
BE
330
44
100
AcDbEntity
  8
New_0
 62
   254
420
 14079192
370
     0
100
AcDbVertex
100
AcDbPolyFaceMeshVertex
 10
277.0
 20
12.5
 30
4529.999999999999
 70
   192
  0
VERTEX
  5
BF
330
44
100
AcDbEntity
  8
New_0
 62
   254
420
 14079192
370
     0
100
AcDbVertex
100
AcDbPolyFaceMeshVertex
 10
275.0
 20
12.5
 30
4580.999999999999
 70
   192
  0
VERTEX
  5
C0
330
44
100
AcDbEntity
  8
New_0
 62
   254
420
 14079192
370
     0
100
AcDbVertex
100
AcDbPolyFaceMeshVertex
 10
277.0
 20
12.5
 30
4580.999999999999
 70
   192
  0
VERTEX
  5
C1
330
44
100
AcDbEntity
  8
New_0
 62
   254
420
 14079192
370
     0
100
AcDbVertex
100
AcDbPolyFaceMeshVertex
 10
275.0
 20
58.0
 30
4600.0
 70
   192
  0
VERTEX
  5
C2
330
44
100
AcDbEntity
  8
New_0
 62
   254
420
 14079192
370
     0
100
AcDbVertex
100
AcDbPolyFaceMeshVertex
 10
277.0
 20
58.0
 30
4600.0
 70
   192
  0
VERTEX
  5
C3
330
44
100
AcDbEntity
  8
New_0
 62
   254
420
 14079192
370
     0
100
AcDbVertex
100
AcDbPolyFaceMeshVertex
 10
267.0
 20
-58.0
 30
4600.0
 70
   192
  0
VERTEX
  5
C4
330
44
100
AcDbEntity
  8
New_0
 62
   254
420
 14079192
370
     0
100
AcDbVertex
100
AcDbPolyFaceMeshVertex
 10
267.0
 20
-53.00000000000001
 30
4598.0
 70
   192
  0
VERTEX
  5
C5
330
44
100
AcDbEntity
  8
New_0
 62
   254
420
 14079192
370
     0
100
AcDbVertex
100
AcDbPolyFaceMeshVertex
 10
275.0
 20
-53.00000000000001
 30
4598.0
 70
   192
  0
VERTEX
  5
C6
330
44
100
AcDbEntity
  8
New_0
 62
   254
420
 14079192
370
     0
100
AcDbVertex
100
AcDbPolyFaceMeshVertex
 10
275.0
 20
-58.0
 30
4600.0
 70
   192
  0
VERTEX
  5
C7
330
44
100
AcDbEntity
  8
New_0
 62
   254
420
 14079192
370
     0
100
AcDbVertex
100
AcDbPolyFaceMeshVertex
 10
267.0
 20
53.00000000000001
 30
4598.0
 70
   192
  0
VERTEX
  5
C8
330
44
100
AcDbEntity
  8
New_0
 62
   254
420
 14079192
370
     0
100
AcDbVertex
100
AcDbPolyFaceMeshVertex
 10
275.0
 20
53.00000000000001
 30
4598.0
 70
   192
  0
VERTEX
  5
C9
330
44
100
AcDbEntity
  8
New_0
 62
   254
420
 14079192
370
     0
100
AcDbVertex
100
AcDbPolyFaceMeshVertex
 10
267.0
 20
58.0
 30
4600.0
 70
   192
  0
VERTEX
  5
CA
330
44
100
AcDbEntity
  8
New_0
 62
   254
420
 14079192
370
     0
100
AcDbVertex
100
AcDbPolyFaceMeshVertex
 10
275.0
 20
58.0
 30
4600.0
 70
   192
  0
VERTEX
  5
CB
330
44
100
AcDbEntity
  8
New_0
 62
   254
420
 14079192
370
     0
100
AcDbVertex
100
AcDbPolyFaceMeshVertex
 10
277.0
 20
58.00000000000001
 30
4523.0
 70
   192
  0
VERTEX
  5
CC
330
44
100
AcDbEntity
  8
New_0
 62
   254
420
 14079192
370
     0
100
AcDbVertex
100
AcDbPolyFaceMeshVertex
 10
277.0
 20
12.5
 30
4542.0
 70
   192
  0
VERTEX
  5
CD
330
44
100
AcDbEntity
  8
New_0
 62
   254
420
 14079192
370
     0
100
AcDbVertex
100
AcDbPolyFaceMeshVertex
 10
279.0
 20
12.5
 30
4542.0
 70
   192
  0
VERTEX
  5
CE
330
44
100
AcDbEntity
  8
New_0
 62
   254
420
 14079192
370
     0
100
AcDbVertex
100
AcDbPolyFaceMeshVertex
 10
279.0
 20
58.00000000000001
 30
4523.0
 70
   192
  0
VERTEX
  5
CF
330
44
100
AcDbEntity
  8
New_0
 62
   254
420
 14079192
370
     0
100
AcDbVertex
100
AcDbPolyFaceMeshVertex
 10
277.0
 20
12.34610425743923
 30
4543.955430813003
 70
   192
  0
VERTEX
  5
D0
330
44
100
AcDbEntity
  8
New_0
 62
   254
420
 14079192
370
     0
100
AcDbVertex
100
AcDbPolyFaceMeshVertex
 10
279.0
 20
12.34610425743923
 30
4543.955430813003
 70
   192
  0
VERTEX
  5
D1
330
44
100
AcDbEntity
  8
New_0
 62
   254
420
 14079192
370
     0
100
AcDbVertex
100
AcDbPolyFaceMeshVertex
 10
277.0
 20
11.88820645368942
 30
4545.862712429686
 70
   192
  0
VERTEX
  5
D2
330
44
100
AcDbEntity
  8
New_0
 62
   254
420
 14079192
370
     0
100
AcDbVertex
100
AcDbPolyFaceMeshVertex
 10
279.0
 20
11.88820645368942
 30
4545.862712429686
 70
   192
  0
VERTEX
  5
D3
330
44
100
AcDbEntity
  8
New_0
 62
   254
420
 14079192
370
     0
100
AcDbVertex
100
AcDbPolyFaceMeshVertex
 10
277.0
 20
11.1375815523546
 30
4547.674881246744
 70
   192
  0
VERTEX
  5
D4
330
44
100
AcDbEntity
  8
New_0
 62
   254
420
 14079192
370
     0
100
AcDbVertex
100
AcDbPolyFaceMeshVertex
 10
279.0
 20
11.1375815523546
 30
4547.674881246744
 70
   192
  0
VERTEX
  5
D5
330
44
100
AcDbEntity
  8
New_0
 62
   254
420
 14079192
370
     0
100
AcDbVertex
100
AcDbPolyFaceMeshVertex
 10
277.0
 20
10.11271242968685
 30
4549.347315653656
 70
   192
  0
VERTEX
  5
D6
330
44
100
AcDbEntity
  8
New_0
 62
   254
420
 14079192
370
     0
100
AcDbVertex
100
AcDbPolyFaceMeshVertex
 10
279.0
 20
10.11271242968685
 30
4549.347315653656
 70
   192
  0
VERTEX
  5
D7
330
44
100
AcDbEntity
  8
New_0
 62
   254
420
 14079192
370
     0
100
AcDbVertex
100
AcDbPolyFaceMeshVertex
 10
277.0
 20
8.83883476483185
 30
4550.838834764832
 70
   192
  0
VERTEX
  5
D8
330
44
100
AcDbEntity
  8
New_0
 62
   254
420
 14079192
370
     0
100
AcDbVertex
100
AcDbPolyFaceMeshVertex
 10
279.0
 20
8.83883476483185
 30
4550.838834764832
 70
   192
  0
VERTEX
  5
D9
330
44
100
AcDbEntity
  8
New_0
 62
   254
420
 14079192
370
     0
100
AcDbVertex
100
AcDbPolyFaceMeshVertex
 10
277.0
 20
7.347315653655921
 30
4552.112712429686
 70
   192
  0
VERTEX
  5
DA
330
44
100
AcDbEntity
  8
New_0
 62
   254
420
 14079192
370
     0
100
AcDbVertex
100
AcDbPolyFaceMeshVertex
 10
279.0
 20
7.347315653655921
 30
4552.112712429686
 70
   192
  0
VERTEX
  5
DB
330
44
100
AcDbEntity
  8
New_0
 62
   254
420
 14079192
370
     0
100
AcDbVertex
100
AcDbPolyFaceMeshVertex
 10
277.0
 20
5.674881246744341
 30
4553.137581552354
 70
   192
  0
VERTEX
  5
DC
330
44
100
AcDbEntity
  8
New_0
 62
   254
420
 14079192
370
     0
100
AcDbVertex
100
AcDbPolyFaceMeshVertex
 10
279.0
 20
5.674881246744341
 30
4553.137581552354
 70
   192
  0
VERTEX
  5
DD
330
44
100
AcDbEntity
  8
New_0
 62
   254
420
 14079192
370
     0
100
AcDbVertex
100
AcDbPolyFaceMeshVertex
 10
277.0
 20
3.862712429686848
 30
4553.888206453689
 70
   192
  0
VERTEX
  5
DE
330
44
100
AcDbEntity
  8
New_0
 62
   254
420
 14079192
370
     0
100
AcDbVertex
100
AcDbPolyFaceMeshVertex
 10
279.0
 20
3.862712429686848
 30
4553.888206453689
 70
   192
  0
VERTEX
  5
DF
330
44
100
AcDbEntity
  8
New_0
 62
   254
420
 14079192
370
     0
100
AcDbVertex
100
AcDbPolyFaceMeshVertex
 10
277.0
 20
1.955430813002891
 30
4554.346104257439
 70
   192
  0
VERTEX
  5
E0
330
44
100
AcDbEntity
  8
New_0
 62
   254
420
 14079192
370
     0
100
AcDbVertex
100
AcDbPolyFaceMeshVertex
 10
279.0
 20
1.955430813002891
 30
4554.346104257439
 70
   192
  0
VERTEX
  5
E1
330
44
100
AcDbEntity
  8
New_0
 62
   254
420
 14079192
370
     0
100
AcDbVertex
100
AcDbPolyFaceMeshVertex
 10
277.0
 20
0.0000000000000029
 30
4554.5
 70
   192
  0
VERTEX
  5
E2
330
44
100
AcDbEntity
  8
New_0
 62
   254
420
 14079192
370
     0
100
AcDbVertex
100
AcDbPolyFaceMeshVertex
 10
279.0
 20
0.000000000000003
 30
4554.5
 70
   192
  0
VERTEX
  5
E3
330
44
100
AcDbEntity
  8
New_0
 62
   254
420
 14079192
370
     0
100
AcDbVertex
100
AcDbPolyFaceMeshVertex
 10
277.0
 20
-1.955430813002881
 30
4554.346104257439
 70
   192
  0
VERTEX
  5
E4
330
44
100
AcDbEntity
  8
New_0
 62
   254
420
 14079192
370
     0
100
AcDbVertex
100
AcDbPolyFaceMeshVertex
 10
279.0
 20
-1.955430813002881
 30
4554.346104257439
 70
   192
  0
VERTEX
  5
E5
330
44
100
AcDbEntity
  8
New_0
 62
   254
420
 14079192
370
     0
100
AcDbVertex
100
AcDbPolyFaceMeshVertex
 10
277.0
 20
-3.86271242968684
 30
4553.888206453689
 70
   192
  0
VERTEX
  5
E6
330
44
100
AcDbEntity
  8
New_0
 62
   254
420
 14079192
370
     0
100
AcDbVertex
100
AcDbPolyFaceMeshVertex
 10
279.0
 20
-3.86271242968684
 30
4553.888206453689
 70
   192
  0
VERTEX
  5
E7
330
44
100
AcDbEntity
  8
New_0
 62
   254
420
 14079192
370
     0
100
AcDbVertex
100
AcDbPolyFaceMeshVertex
 10
277.0
 20
-5.674881246744332
 30
4553.137581552354
 70
   192
  0
VERTEX
  5
E8
330
44
100
AcDbEntity
  8
New_0
 62
   254
420
 14079192
370
     0
100
AcDbVertex
100
AcDbPolyFaceMeshVertex
 10
279.0
 20
-5.674881246744332
 30
4553.137581552354
 70
   192
  0
VERTEX
  5
E9
330
44
100
AcDbEntity
  8
New_0
 62
   254
420
 14079192
370
     0
100
AcDbVertex
100
AcDbPolyFaceMeshVertex
 10
277.0
 20
-7.347315653655912
 30
4552.112712429686
 70
   192
  0
VERTEX
  5
EA
330
44
100
AcDbEntity
  8
New_0
 62
   254
420
 14079192
370
     0
100
AcDbVertex
100
AcDbPolyFaceMeshVertex
 10
279.0
 20
-7.347315653655912
 30
4552.112712429686
 70
   192
  0
VERTEX
  5
EB
330
44
100
AcDbEntity
  8
New_0
 62
   254
420
 14079192
370
     0
100
AcDbVertex
100
AcDbPolyFaceMeshVertex
 10
277.0
 20
-8.838834764831843
 30
4550.838834764832
 70
   192
  0
VERTEX
  5
EC
330
44
100
AcDbEntity
  8
New_0
 62
   254
420
 14079192
370
     0
100
AcDbVertex
100
AcDbPolyFaceMeshVertex
 10
279.0
 20
-8.838834764831843
 30
4550.838834764832
 70
   192
  0
VERTEX
  5
ED
330
44
100
AcDbEntity
  8
New_0
 62
   254
420
 14079192
370
     0
100
AcDbVertex
100
AcDbPolyFaceMeshVertex
 10
277.0
 20
-10.11271242968684
 30
4549.347315653656
 70
   192
  0
VERTEX
  5
EE
330
44
100
AcDbEntity
  8
New_0
 62
   254
420
 14079192
370
     0
100
AcDbVertex
100
AcDbPolyFaceMeshVertex
 10
279.0
 20
-10.11271242968684
 30
4549.347315653656
 70
   192
  0
VERTEX
  5
EF
330
44
100
AcDbEntity
  8
New_0
 62
   254
420
 14079192
370
     0
100
AcDbVertex
100
AcDbPolyFaceMeshVertex
 10
277.0
 20
-11.1375815523546
 30
4547.674881246744
 70
   192
  0
VERTEX
  5
F0
330
44
100
AcDbEntity
  8
New_0
 62
   254
420
 14079192
370
     0
100
AcDbVertex
100
AcDbPolyFaceMeshVertex
 10
279.0
 20
-11.1375815523546
 30
4547.674881246744
 70
   192
  0
VERTEX
  5
F1
330
44
100
AcDbEntity
  8
New_0
 62
   254
420
 14079192
370
     0
100
AcDbVertex
100
AcDbPolyFaceMeshVertex
 10
277.0
 20
-11.88820645368942
 30
4545.862712429686
 70
   192
  0
VERTEX
  5
F2
330
44
100
AcDbEntity
  8
New_0
 62
   254
420
 14079192
370
     0
100
AcDbVertex
100
AcDbPolyFaceMeshVertex
 10
279.0
 20
-11.88820645368942
 30
4545.862712429686
 70
   192
  0
VERTEX
  5
F3
330
44
100
AcDbEntity
  8
New_0
 62
   254
420
 14079192
370
     0
100
AcDbVertex
100
AcDbPolyFaceMeshVertex
 10
277.0
 20
-12.34610425743923
 30
4543.955430813003
 70
   192
  0
VERTEX
  5
F4
330
44
100
AcDbEntity
  8
New_0
 62
   254
420
 14079192
370
     0
100
AcDbVertex
100
AcDbPolyFaceMeshVertex
 10
279.0
 20
-12.34610425743923
 30
4543.955430813003
 70
   192
  0
VERTEX
  5
F5
330
44
100
AcDbEntity
  8
New_0
 62
   254
420
 14079192
370
     0
100
AcDbVertex
100
AcDbPolyFaceMeshVertex
 10
277.0
 20
-12.50000000000001
 30
4542.0
 70
   192
  0
VERTEX
  5
F6
330
44
100
AcDbEntity
  8
New_0
 62
   254
420
 14079192
370
     0
100
AcDbVertex
100
AcDbPolyFaceMeshVertex
 10
279.0
 20
-12.50000000000001
 30
4542.0
 70
   192
  0
VERTEX
  5
F7
330
44
100
AcDbEntity
  8
New_0
 62
   254
420
 14079192
370
     0
100
AcDbVertex
100
AcDbPolyFaceMeshVertex
 10
277.0
 20
-57.99999999999999
 30
4523.0
 70
   192
  0
VERTEX
  5
F8
330
44
100
AcDbEntity
  8
New_0
 62
   254
420
 14079192
370
     0
100
AcDbVertex
100
AcDbPolyFaceMeshVertex
 10
279.0
 20
-57.99999999999999
 30
4523.0
 70
   192
  0
VERTEX
  5
F9
330
44
100
AcDbEntity
  8
New_0
 62
   254
420
 14079192
370
     0
100
AcDbVertex
100
AcDbPolyFaceMeshVertex
 10
277.0
 20
40.00000000000001
 30
4497.0
 70
   192
  0
VERTEX
  5
FA
330
44
100
AcDbEntity
  8
New_0
 62
   254
420
 14079192
370
     0
100
AcDbVertex
100
AcDbPolyFaceMeshVertex
 10
277.0
 20
58.00000000000001
 30
4497.0
 70
   192
  0
VERTEX
  5
FB
330
44
100
AcDbEntity
  8
New_0
 62
   254
420
 14079192
370
     0
100
AcDbVertex
100
AcDbPolyFaceMeshVertex
 10
287.0000000000001
 20
58.00000000000001
 30
4497.0
 70
   192
  0
VERTEX
  5
FC
330
44
100
AcDbEntity
  8
New_0
 62
   254
420
 14079192
370
     0
100
AcDbVertex
100
AcDbPolyFaceMeshVertex
 10
287.0000000000001
 20
40.00000000000001
 30
4497.0
 70
   192
  0
VERTEX
  5
FD
330
44
100
AcDbEntity
  8
New_0
 62
   254
420
 14079192
370
     0
100
AcDbVertex
100
AcDbPolyFaceMeshVertex
 10
277.0
 20
58.00000000000001
 30
4523.0
 70
   192
  0
VERTEX
  5
FE
330
44
100
AcDbEntity
  8
New_0
 62
   254
420
 14079192
370
     0
100
AcDbVertex
100
AcDbPolyFaceMeshVertex
 10
287.0000000000001
 20
58.00000000000001
 30
4523.0
 70
   192
  0
VERTEX
  5
FF
330
44
100
AcDbEntity
  8
New_0
 62
   254
420
 14079192
370
     0
100
AcDbVertex
100
AcDbPolyFaceMeshVertex
 10
277.0
 20
-57.99999999999999
 30
4523.0
 70
   192
  0
VERTEX
  5
100
330
44
100
AcDbEntity
  8
New_0
 62
   254
420
 14079192
370
     0
100
AcDbVertex
100
AcDbPolyFaceMeshVertex
 10
287.0000000000001
 20
-57.99999999999999
 30
4523.0
 70
   192
  0
VERTEX
  5
101
330
44
100
AcDbEntity
  8
New_0
 62
   254
420
 14079192
370
     0
100
AcDbVertex
100
AcDbPolyFaceMeshVertex
 10
277.0
 20
-57.99999999999999
 30
4497.0
 70
   192
  0
VERTEX
  5
102
330
44
100
AcDbEntity
  8
New_0
 62
   254
420
 14079192
370
     0
100
AcDbVertex
100
AcDbPolyFaceMeshVertex
 10
287.0000000000001
 20
-57.99999999999999
 30
4497.0
 70
   192
  0
VERTEX
  5
103
330
44
100
AcDbEntity
  8
New_0
 62
   254
420
 14079192
370
     0
100
AcDbVertex
100
AcDbPolyFaceMeshVertex
 10
277.0
 20
-39.99999999999999
 30
4497.0
 70
   192
  0
VERTEX
  5
104
330
44
100
AcDbEntity
  8
New_0
 62
   254
420
 14079192
370
     0
100
AcDbVertex
100
AcDbPolyFaceMeshVertex
 10
287.0000000000001
 20
-39.99999999999999
 30
4497.0
 70
   192
  0
VERTEX
  5
105
330
44
100
AcDbEntity
  8
New_0
 62
   254
420
 14079192
370
     0
100
AcDbVertex
100
AcDbPolyFaceMeshVertex
 10
277.0
 20
-39.99999999999999
 30
4499.0
 70
   192
  0
VERTEX
  5
106
330
44
100
AcDbEntity
  8
New_0
 62
   254
420
 14079192
370
     0
100
AcDbVertex
100
AcDbPolyFaceMeshVertex
 10
287.0000000000001
 20
-39.99999999999999
 30
4499.0
 70
   192
  0
VERTEX
  5
107
330
44
100
AcDbEntity
  8
New_0
 62
   254
420
 14079192
370
     0
100
AcDbVertex
100
AcDbPolyFaceMeshVertex
 10
277.0
 20
-55.99999999999999
 30
4499.0
 70
   192
  0
VERTEX
  5
108
330
44
100
AcDbEntity
  8
New_0
 62
   254
420
 14079192
370
     0
100
AcDbVertex
100
AcDbPolyFaceMeshVertex
 10
287.0000000000001
 20
-55.99999999999999
 30
4499.0
 70
   192
  0
VERTEX
  5
109
330
44
100
AcDbEntity
  8
New_0
 62
   254
420
 14079192
370
     0
100
AcDbVertex
100
AcDbPolyFaceMeshVertex
 10
277.0
 20
-55.99999999999999
 30
4521.0
 70
   192
  0
VERTEX
  5
10A
330
44
100
AcDbEntity
  8
New_0
 62
   254
420
 14079192
370
     0
100
AcDbVertex
100
AcDbPolyFaceMeshVertex
 10
287.0000000000001
 20
-55.99999999999999
 30
4521.0
 70
   192
  0
VERTEX
  5
10B
330
44
100
AcDbEntity
  8
New_0
 62
   254
420
 14079192
370
     0
100
AcDbVertex
100
AcDbPolyFaceMeshVertex
 10
277.0
 20
56.00000000000001
 30
4521.0
 70
   192
  0
VERTEX
  5
10C
330
44
100
AcDbEntity
  8
New_0
 62
   254
420
 14079192
370
     0
100
AcDbVertex
100
AcDbPolyFaceMeshVertex
 10
287.0000000000001
 20
56.00000000000001
 30
4521.0
 70
   192
  0
VERTEX
  5
10D
330
44
100
AcDbEntity
  8
New_0
 62
   254
420
 14079192
370
     0
100
AcDbVertex
100
AcDbPolyFaceMeshVertex
 10
277.0
 20
56.00000000000001
 30
4499.0
 70
   192
  0
VERTEX
  5
10E
330
44
100
AcDbEntity
  8
New_0
 62
   254
420
 14079192
370
     0
100
AcDbVertex
100
AcDbPolyFaceMeshVertex
 10
287.0000000000001
 20
56.00000000000001
 30
4499.0
 70
   192
  0
VERTEX
  5
10F
330
44
100
AcDbEntity
  8
New_0
 62
   254
420
 14079192
370
     0
100
AcDbVertex
100
AcDbPolyFaceMeshVertex
 10
277.0
 20
40.00000000000001
 30
4499.0
 70
   192
  0
VERTEX
  5
110
330
44
100
AcDbEntity
  8
New_0
 62
   254
420
 14079192
370
     0
100
AcDbVertex
100
AcDbPolyFaceMeshVertex
 10
287.0000000000001
 20
40.00000000000001
 30
4499.0
 70
   192
  0
VERTEX
  5
111
330
44
100
AcDbEntity
  8
New_0
 62
   254
420
 14079192
370
     0
100
AcDbFaceRecord
 10
0.0
 20
0.0
 30
0.0
 70
   128
 71
     1
 72
     2
 73
     3
 74
     4
  0
VERTEX
  5
112
330
44
100
AcDbEntity
  8
New_0
 62
   254
420
 14079192
370
     0
100
AcDbFaceRecord
 10
0.0
 20
0.0
 30
0.0
 70
   128
 71
     2
 72
     5
 73
     6
 74
     3
  0
VERTEX
  5
113
330
44
100
AcDbEntity
  8
New_0
 62
   254
420
 14079192
370
     0
100
AcDbFaceRecord
 10
0.0
 20
0.0
 30
0.0
 70
   128
 71
     5
 72
     7
 73
     8
 74
     6
  0
VERTEX
  5
114
330
44
100
AcDbEntity
  8
New_0
 62
   254
420
 14079192
370
     0
100
AcDbFaceRecord
 10
0.0
 20
0.0
 30
0.0
 70
   128
 71
     7
 72
     1
 73
     4
 74
     8
  0
VERTEX
  5
115
330
44
100
AcDbEntity
  8
New_0
 62
   254
420
 14079192
370
     0
100
AcDbFaceRecord
 10
0.0
 20
0.0
 30
0.0
 70
   128
 71
     1
 72
     7
 73
     5
 74
     2
  0
VERTEX
  5
116
330
44
100
AcDbEntity
  8
New_0
 62
   254
420
 14079192
370
     0
100
AcDbFaceRecord
 10
0.0
 20
0.0
 30
0.0
 70
   128
 71
     4
 72
     3
 73
     6
 74
     8
  0
VERTEX
  5
117
330
44
100
AcDbEntity
  8
New_0
 62
   254
420
 14079192
370
     0
100
AcDbFaceRecord
 10
0.0
 20
0.0
 30
0.0
 70
   128
 71
     9
 72
    10
 73
    11
 74
    12
  0
VERTEX
  5
118
330
44
100
AcDbEntity
  8
New_0
 62
   254
420
 14079192
370
     0
100
AcDbFaceRecord
 10
0.0
 20
0.0
 30
0.0
 70
   128
 71
    10
 72
    13
 73
    14
 74
    11
  0
VERTEX
  5
119
330
44
100
AcDbEntity
  8
New_0
 62
   254
420
 14079192
370
     0
100
AcDbFaceRecord
 10
0.0
 20
0.0
 30
0.0
 70
   128
 71
    13
 72
    15
 73
    16
 74
    14
  0
VERTEX
  5
11A
330
44
100
AcDbEntity
  8
New_0
 62
   254
420
 14079192
370
     0
100
AcDbFaceRecord
 10
0.0
 20
0.0
 30
0.0
 70
   128
 71
    15
 72
     9
 73
    12
 74
    16
  0
VERTEX
  5
11B
330
44
100
AcDbEntity
  8
New_0
 62
   254
420
 14079192
370
     0
100
AcDbFaceRecord
 10
0.0
 20
0.0
 30
0.0
 70
   128
 71
     9
 72
    15
 73
    13
 74
    10
  0
VERTEX
  5
11C
330
44
100
AcDbEntity
  8
New_0
 62
   254
420
 14079192
370
     0
100
AcDbFaceRecord
 10
0.0
 20
0.0
 30
0.0
 70
   128
 71
    12
 72
    11
 73
    14
 74
    16
  0
VERTEX
  5
11D
330
44
100
AcDbEntity
  8
New_0
 62
    18
420
        0
370
     0
100
AcDbFaceRecord
 10
0.0
 20
0.0
 30
0.0
 70
   128
 71
    17
 72
    18
 73
    19
 74
    20
  0
VERTEX
  5
11E
330
44
100
AcDbEntity
  8
New_0
 62
    18
420
        0
370
     0
100
AcDbFaceRecord
 10
0.0
 20
0.0
 30
0.0
 70
   128
 71
    18
 72
    21
 73
    22
 74
    19
  0
VERTEX
  5
11F
330
44
100
AcDbEntity
  8
New_0
 62
    18
420
        0
370
     0
100
AcDbFaceRecord
 10
0.0
 20
0.0
 30
0.0
 70
   128
 71
    21
 72
    23
 73
    24
 74
    22
  0
VERTEX
  5
120
330
44
100
AcDbEntity
  8
New_0
 62
    18
420
        0
370
     0
100
AcDbFaceRecord
 10
0.0
 20
0.0
 30
0.0
 70
   128
 71
    23
 72
    17
 73
    20
 74
    24
  0
VERTEX
  5
121
330
44
100
AcDbEntity
  8
New_0
 62
    18
420
        0
370
     0
100
AcDbFaceRecord
 10
0.0
 20
0.0
 30
0.0
 70
   128
 71
    17
 72
    23
 73
    21
 74
    18
  0
VERTEX
  5
122
330
44
100
AcDbEntity
  8
New_0
 62
    18
420
        0
370
     0
100
AcDbFaceRecord
 10
0.0
 20
0.0
 30
0.0
 70
   128
 71
    20
 72
    19
 73
    22
 74
    24
  0
VERTEX
  5
123
330
44
100
AcDbEntity
  8
New_0
 62
   254
420
 14079192
370
     0
100
AcDbFaceRecord
 10
0.0
 20
0.0
 30
0.0
 70
   128
 71
    25
 72
    26
 73
    27
 74
    28
  0
VERTEX
  5
124
330
44
100
AcDbEntity
  8
New_0
 62
   254
420
 14079192
370
     0
100
AcDbFaceRecord
 10
0.0
 20
0.0
 30
0.0
 70
   128
 71
    26
 72
    29
 73
    30
 74
    27
  0
VERTEX
  5
125
330
44
100
AcDbEntity
  8
New_0
 62
   254
420
 14079192
370
     0
100
AcDbFaceRecord
 10
0.0
 20
0.0
 30
0.0
 70
   128
 71
    29
 72
    31
 73
    32
 74
    30
  0
VERTEX
  5
126
330
44
100
AcDbEntity
  8
New_0
 62
   254
420
 14079192
370
     0
100
AcDbFaceRecord
 10
0.0
 20
0.0
 30
0.0
 70
   128
 71
    31
 72
    33
 73
    34
 74
    32
  0
VERTEX
  5
127
330
44
100
AcDbEntity
  8
New_0
 62
   254
420
 14079192
370
     0
100
AcDbFaceRecord
 10
0.0
 20
0.0
 30
0.0
 70
   128
 71
    33
 72
    35
 73
    36
 74
    34
  0
VERTEX
  5
128
330
44
100
AcDbEntity
  8
New_0
 62
   254
420
 14079192
370
     0
100
AcDbFaceRecord
 10
0.0
 20
0.0
 30
0.0
 70
   128
 71
    35
 72
    25
 73
    28
 74
    36
  0
VERTEX
  5
129
330
44
100
AcDbEntity
  8
New_0
 62
   254
420
 14079192
370
     0
100
AcDbFaceRecord
 10
0.0
 20
0.0
 30
0.0
 70
   128
 71
    26
 72
    25
 73
    35
  0
VERTEX
  5
12A
330
44
100
AcDbEntity
  8
New_0
 62
   254
420
 14079192
370
     0
100
AcDbFaceRecord
 10
0.0
 20
0.0
 30
0.0
 70
   128
 71
    26
 72
    35
 73
    33
  0
VERTEX
  5
12B
330
44
100
AcDbEntity
  8
New_0
 62
   254
420
 14079192
370
     0
100
AcDbFaceRecord
 10
0.0
 20
0.0
 30
0.0
 70
   128
 71
    29
 72
    26
 73
    33
  0
VERTEX
  5
12C
330
44
100
AcDbEntity
  8
New_0
 62
   254
420
 14079192
370
     0
100
AcDbFaceRecord
 10
0.0
 20
0.0
 30
0.0
 70
   128
 71
    29
 72
    33
 73
    31
  0
VERTEX
  5
12D
330
44
100
AcDbEntity
  8
New_0
 62
   254
420
 14079192
370
     0
100
AcDbFaceRecord
 10
0.0
 20
0.0
 30
0.0
 70
   128
 71
    34
 72
    36
 73
    28
  0
VERTEX
  5
12E
330
44
100
AcDbEntity
  8
New_0
 62
   254
420
 14079192
370
     0
100
AcDbFaceRecord
 10
0.0
 20
0.0
 30
0.0
 70
   128
 71
    34
 72
    28
 73
    27
  0
VERTEX
  5
12F
330
44
100
AcDbEntity
  8
New_0
 62
   254
420
 14079192
370
     0
100
AcDbFaceRecord
 10
0.0
 20
0.0
 30
0.0
 70
   128
 71
    32
 72
    34
 73
    27
  0
VERTEX
  5
130
330
44
100
AcDbEntity
  8
New_0
 62
   254
420
 14079192
370
     0
100
AcDbFaceRecord
 10
0.0
 20
0.0
 30
0.0
 70
   128
 71
    32
 72
    27
 73
    30
  0
VERTEX
  5
131
330
44
100
AcDbEntity
  8
New_0
 62
   254
420
 14079192
370
     0
100
AcDbFaceRecord
 10
0.0
 20
0.0
 30
0.0
 70
   128
 71
    37
 72
    38
 73
    39
 74
    40
  0
VERTEX
  5
132
330
44
100
AcDbEntity
  8
New_0
 62
   254
420
 14079192
370
     0
100
AcDbFaceRecord
 10
0.0
 20
0.0
 30
0.0
 70
   128
 71
    38
 72
    41
 73
    42
 74
    39
  0
VERTEX
  5
133
330
44
100
AcDbEntity
  8
New_0
 62
   254
420
 14079192
370
     0
100
AcDbFaceRecord
 10
0.0
 20
0.0
 30
0.0
 70
   128
 71
    41
 72
    43
 73
    44
 74
    42
  0
VERTEX
  5
134
330
44
100
AcDbEntity
  8
New_0
 62
   254
420
 14079192
370
     0
100
AcDbFaceRecord
 10
0.0
 20
0.0
 30
0.0
 70
   128
 71
    43
 72
    37
 73
    40
 74
    44
  0
VERTEX
  5
135
330
44
100
AcDbEntity
  8
New_0
 62
   254
420
 14079192
370
     0
100
AcDbFaceRecord
 10
0.0
 20
0.0
 30
0.0
 70
   128
 71
    37
 72
    43
 73
    41
 74
    38
  0
VERTEX
  5
136
330
44
100
AcDbEntity
  8
New_0
 62
   254
420
 14079192
370
     0
100
AcDbFaceRecord
 10
0.0
 20
0.0
 30
0.0
 70
   128
 71
    40
 72
    39
 73
    42
 74
    44
  0
VERTEX
  5
137
330
44
100
AcDbEntity
  8
New_0
 62
   254
420
 14079192
370
     0
100
AcDbFaceRecord
 10
0.0
 20
0.0
 30
0.0
 70
   128
 71
    45
 72
    46
 73
    47
 74
    48
  0
VERTEX
  5
138
330
44
100
AcDbEntity
  8
New_0
 62
   254
420
 14079192
370
     0
100
AcDbFaceRecord
 10
0.0
 20
0.0
 30
0.0
 70
   128
 71
    46
 72
    49
 73
    50
 74
    47
  0
VERTEX
  5
139
330
44
100
AcDbEntity
  8
New_0
 62
   254
420
 14079192
370
     0
100
AcDbFaceRecord
 10
0.0
 20
0.0
 30
0.0
 70
   128
 71
    49
 72
    51
 73
    52
 74
    50
  0
VERTEX
  5
13A
330
44
100
AcDbEntity
  8
New_0
 62
   254
420
 14079192
370
     0
100
AcDbFaceRecord
 10
0.0
 20
0.0
 30
0.0
 70
   128
 71
    51
 72
    53
 73
    54
 74
    52
  0
VERTEX
  5
13B
330
44
100
AcDbEntity
  8
New_0
 62
   254
420
 14079192
370
     0
100
AcDbFaceRecord
 10
0.0
 20
0.0
 30
0.0
 70
   128
 71
    53
 72
    55
 73
    56
 74
    54
  0
VERTEX
  5
13C
330
44
100
AcDbEntity
  8
New_0
 62
   254
420
 14079192
370
     0
100
AcDbFaceRecord
 10
0.0
 20
0.0
 30
0.0
 70
   128
 71
    55
 72
    57
 73
    58
 74
    56
  0
VERTEX
  5
13D
330
44
100
AcDbEntity
  8
New_0
 62
   254
420
 14079192
370
     0
100
AcDbFaceRecord
 10
0.0
 20
0.0
 30
0.0
 70
   128
 71
    57
 72
    59
 73
    60
 74
    58
  0
VERTEX
  5
13E
330
44
100
AcDbEntity
  8
New_0
 62
   254
420
 14079192
370
     0
100
AcDbFaceRecord
 10
0.0
 20
0.0
 30
0.0
 70
   128
 71
    59
 72
    61
 73
    62
 74
    60
  0
VERTEX
  5
13F
330
44
100
AcDbEntity
  8
New_0
 62
   254
420
 14079192
370
     0
100
AcDbFaceRecord
 10
0.0
 20
0.0
 30
0.0
 70
   128
 71
    61
 72
    63
 73
    64
 74
    62
  0
VERTEX
  5
140
330
44
100
AcDbEntity
  8
New_0
 62
   254
420
 14079192
370
     0
100
AcDbFaceRecord
 10
0.0
 20
0.0
 30
0.0
 70
   128
 71
    63
 72
    65
 73
    66
 74
    64
  0
VERTEX
  5
141
330
44
100
AcDbEntity
  8
New_0
 62
   254
420
 14079192
370
     0
100
AcDbFaceRecord
 10
0.0
 20
0.0
 30
0.0
 70
   128
 71
    65
 72
    67
 73
    68
 74
    66
  0
VERTEX
  5
142
330
44
100
AcDbEntity
  8
New_0
 62
   254
420
 14079192
370
     0
100
AcDbFaceRecord
 10
0.0
 20
0.0
 30
0.0
 70
   128
 71
    67
 72
    69
 73
    70
 74
    68
  0
VERTEX
  5
143
330
44
100
AcDbEntity
  8
New_0
 62
   254
420
 14079192
370
     0
100
AcDbFaceRecord
 10
0.0
 20
0.0
 30
0.0
 70
   128
 71
    69
 72
    71
 73
    72
 74
    70
  0
VERTEX
  5
144
330
44
100
AcDbEntity
  8
New_0
 62
   254
420
 14079192
370
     0
100
AcDbFaceRecord
 10
0.0
 20
0.0
 30
0.0
 70
   128
 71
    71
 72
    73
 73
    74
 74
    72
  0
VERTEX
  5
145
330
44
100
AcDbEntity
  8
New_0
 62
   254
420
 14079192
370
     0
100
AcDbFaceRecord
 10
0.0
 20
0.0
 30
0.0
 70
   128
 71
    73
 72
    75
 73
    76
 74
    74
  0
VERTEX
  5
146
330
44
100
AcDbEntity
  8
New_0
 62
   254
420
 14079192
370
     0
100
AcDbFaceRecord
 10
0.0
 20
0.0
 30
0.0
 70
   128
 71
    75
 72
    77
 73
    78
 74
    76
  0
VERTEX
  5
147
330
44
100
AcDbEntity
  8
New_0
 62
   254
420
 14079192
370
     0
100
AcDbFaceRecord
 10
0.0
 20
0.0
 30
0.0
 70
   128
 71
    77
 72
    79
 73
    80
 74
    78
  0
VERTEX
  5
148
330
44
100
AcDbEntity
  8
New_0
 62
   254
420
 14079192
370
     0
100
AcDbFaceRecord
 10
0.0
 20
0.0
 30
0.0
 70
   128
 71
    79
 72
    81
 73
    82
 74
    80
  0
VERTEX
  5
149
330
44
100
AcDbEntity
  8
New_0
 62
   254
420
 14079192
370
     0
100
AcDbFaceRecord
 10
0.0
 20
0.0
 30
0.0
 70
   128
 71
    81
 72
    83
 73
    84
 74
    82
  0
VERTEX
  5
14A
330
44
100
AcDbEntity
  8
New_0
 62
   254
420
 14079192
370
     0
100
AcDbFaceRecord
 10
0.0
 20
0.0
 30
0.0
 70
   128
 71
    83
 72
    85
 73
    86
 74
    84
  0
VERTEX
  5
14B
330
44
100
AcDbEntity
  8
New_0
 62
   254
420
 14079192
370
     0
100
AcDbFaceRecord
 10
0.0
 20
0.0
 30
0.0
 70
   128
 71
    85
 72
    87
 73
    88
 74
    86
  0
VERTEX
  5
14C
330
44
100
AcDbEntity
  8
New_0
 62
   254
420
 14079192
370
     0
100
AcDbFaceRecord
 10
0.0
 20
0.0
 30
0.0
 70
   128
 71
    87
 72
    89
 73
    90
 74
    88
  0
VERTEX
  5
14D
330
44
100
AcDbEntity
  8
New_0
 62
   254
420
 14079192
370
     0
100
AcDbFaceRecord
 10
0.0
 20
0.0
 30
0.0
 70
   128
 71
    89
 72
    45
 73
    48
 74
    90
  0
VERTEX
  5
14E
330
44
100
AcDbEntity
  8
New_0
 62
   254
420
 14079192
370
     0
100
AcDbFaceRecord
 10
0.0
 20
0.0
 30
0.0
 70
   128
 71
    69
 72
    67
 73
    65
  0
VERTEX
  5
14F
330
44
100
AcDbEntity
  8
New_0
 62
   254
420
 14079192
370
     0
100
AcDbFaceRecord
 10
0.0
 20
0.0
 30
0.0
 70
   128
 71
    71
 72
    69
 73
    65
  0
VERTEX
  5
150
330
44
100
AcDbEntity
  8
New_0
 62
   254
420
 14079192
370
     0
100
AcDbFaceRecord
 10
0.0
 20
0.0
 30
0.0
 70
   128
 71
    71
 72
    65
 73
    63
  0
VERTEX
  5
151
330
44
100
AcDbEntity
  8
New_0
 62
   254
420
 14079192
370
     0
100
AcDbFaceRecord
 10
0.0
 20
0.0
 30
0.0
 70
   128
 71
    73
 72
    71
 73
    63
  0
VERTEX
  5
152
330
44
100
AcDbEntity
  8
New_0
 62
   254
420
 14079192
370
     0
100
AcDbFaceRecord
 10
0.0
 20
0.0
 30
0.0
 70
   128
 71
    73
 72
    63
 73
    61
  0
VERTEX
  5
153
330
44
100
AcDbEntity
  8
New_0
 62
   254
420
 14079192
370
     0
100
AcDbFaceRecord
 10
0.0
 20
0.0
 30
0.0
 70
   128
 71
    75
 72
    73
 73
    61
  0
VERTEX
  5
154
330
44
100
AcDbEntity
  8
New_0
 62
   254
420
 14079192
370
     0
100
AcDbFaceRecord
 10
0.0
 20
0.0
 30
0.0
 70
   128
 71
    75
 72
    61
 73
    59
  0
VERTEX
  5
155
330
44
100
AcDbEntity
  8
New_0
 62
   254
420
 14079192
370
     0
100
AcDbFaceRecord
 10
0.0
 20
0.0
 30
0.0
 70
   128
 71
    77
 72
    75
 73
    59
  0
VERTEX
  5
156
330
44
100
AcDbEntity
  8
New_0
 62
   254
420
 14079192
370
     0
100
AcDbFaceRecord
 10
0.0
 20
0.0
 30
0.0
 70
   128
 71
    77
 72
    59
 73
    57
  0
VERTEX
  5
157
330
44
100
AcDbEntity
  8
New_0
 62
   254
420
 14079192
370
     0
100
AcDbFaceRecord
 10
0.0
 20
0.0
 30
0.0
 70
   128
 71
    79
 72
    77
 73
    57
  0
VERTEX
  5
158
330
44
100
AcDbEntity
  8
New_0
 62
   254
420
 14079192
370
     0
100
AcDbFaceRecord
 10
0.0
 20
0.0
 30
0.0
 70
   128
 71
    79
 72
    57
 73
    55
  0
VERTEX
  5
159
330
44
100
AcDbEntity
  8
New_0
 62
   254
420
 14079192
370
     0
100
AcDbFaceRecord
 10
0.0
 20
0.0
 30
0.0
 70
   128
 71
    81
 72
    79
 73
    55
  0
VERTEX
  5
15A
330
44
100
AcDbEntity
  8
New_0
 62
   254
420
 14079192
370
     0
100
AcDbFaceRecord
 10
0.0
 20
0.0
 30
0.0
 70
   128
 71
    81
 72
    55
 73
    53
  0
VERTEX
  5
15B
330
44
100
AcDbEntity
  8
New_0
 62
   254
420
 14079192
370
     0
100
AcDbFaceRecord
 10
0.0
 20
0.0
 30
0.0
 70
   128
 71
    83
 72
    81
 73
    53
  0
VERTEX
  5
15C
330
44
100
AcDbEntity
  8
New_0
 62
   254
420
 14079192
370
     0
100
AcDbFaceRecord
 10
0.0
 20
0.0
 30
0.0
 70
   128
 71
    83
 72
    53
 73
    51
  0
VERTEX
  5
15D
330
44
100
AcDbEntity
  8
New_0
 62
   254
420
 14079192
370
     0
100
AcDbFaceRecord
 10
0.0
 20
0.0
 30
0.0
 70
   128
 71
    85
 72
    83
 73
    51
  0
VERTEX
  5
15E
330
44
100
AcDbEntity
  8
New_0
 62
   254
420
 14079192
370
     0
100
AcDbFaceRecord
 10
0.0
 20
0.0
 30
0.0
 70
   128
 71
    85
 72
    51
 73
    49
  0
VERTEX
  5
15F
330
44
100
AcDbEntity
  8
New_0
 62
   254
420
 14079192
370
     0
100
AcDbFaceRecord
 10
0.0
 20
0.0
 30
0.0
 70
   128
 71
    87
 72
    85
 73
    49
  0
VERTEX
  5
160
330
44
100
AcDbEntity
  8
New_0
 62
   254
420
 14079192
370
     0
100
AcDbFaceRecord
 10
0.0
 20
0.0
 30
0.0
 70
   128
 71
    87
 72
    49
 73
    46
  0
VERTEX
  5
161
330
44
100
AcDbEntity
  8
New_0
 62
   254
420
 14079192
370
     0
100
AcDbFaceRecord
 10
0.0
 20
0.0
 30
0.0
 70
   128
 71
    89
 72
    87
 73
    46
  0
VERTEX
  5
162
330
44
100
AcDbEntity
  8
New_0
 62
   254
420
 14079192
370
     0
100
AcDbFaceRecord
 10
0.0
 20
0.0
 30
0.0
 70
   128
 71
    89
 72
    46
 73
    45
  0
VERTEX
  5
163
330
44
100
AcDbEntity
  8
New_0
 62
   254
420
 14079192
370
     0
100
AcDbFaceRecord
 10
0.0
 20
0.0
 30
0.0
 70
   128
 71
    66
 72
    68
 73
    70
  0
VERTEX
  5
164
330
44
100
AcDbEntity
  8
New_0
 62
   254
420
 14079192
370
     0
100
AcDbFaceRecord
 10
0.0
 20
0.0
 30
0.0
 70
   128
 71
    64
 72
    66
 73
    70
  0
VERTEX
  5
165
330
44
100
AcDbEntity
  8
New_0
 62
   254
420
 14079192
370
     0
100
AcDbFaceRecord
 10
0.0
 20
0.0
 30
0.0
 70
   128
 71
    64
 72
    70
 73
    72
  0
VERTEX
  5
166
330
44
100
AcDbEntity
  8
New_0
 62
   254
420
 14079192
370
     0
100
AcDbFaceRecord
 10
0.0
 20
0.0
 30
0.0
 70
   128
 71
    62
 72
    64
 73
    72
  0
VERTEX
  5
167
330
44
100
AcDbEntity
  8
New_0
 62
   254
420
 14079192
370
     0
100
AcDbFaceRecord
 10
0.0
 20
0.0
 30
0.0
 70
   128
 71
    62
 72
    72
 73
    74
  0
VERTEX
  5
168
330
44
100
AcDbEntity
  8
New_0
 62
   254
420
 14079192
370
     0
100
AcDbFaceRecord
 10
0.0
 20
0.0
 30
0.0
 70
   128
 71
    60
 72
    62
 73
    74
  0
VERTEX
  5
169
330
44
100
AcDbEntity
  8
New_0
 62
   254
420
 14079192
370
     0
100
AcDbFaceRecord
 10
0.0
 20
0.0
 30
0.0
 70
   128
 71
    60
 72
    74
 73
    76
  0
VERTEX
  5
16A
330
44
100
AcDbEntity
  8
New_0
 62
   254
420
 14079192
370
     0
100
AcDbFaceRecord
 10
0.0
 20
0.0
 30
0.0
 70
   128
 71
    58
 72
    60
 73
    76
  0
VERTEX
  5
16B
330
44
100
AcDbEntity
  8
New_0
 62
   254
420
 14079192
370
     0
100
AcDbFaceRecord
 10
0.0
 20
0.0
 30
0.0
 70
   128
 71
    58
 72
    76
 73
    78
  0
VERTEX
  5
16C
330
44
100
AcDbEntity
  8
New_0
 62
   254
420
 14079192
370
     0
100
AcDbFaceRecord
 10
0.0
 20
0.0
 30
0.0
 70
   128
 71
    56
 72
    58
 73
    78
  0
VERTEX
  5
16D
330
44
100
AcDbEntity
  8
New_0
 62
   254
420
 14079192
370
     0
100
AcDbFaceRecord
 10
0.0
 20
0.0
 30
0.0
 70
   128
 71
    56
 72
    78
 73
    80
  0
VERTEX
  5
16E
330
44
100
AcDbEntity
  8
New_0
 62
   254
420
 14079192
370
     0
100
AcDbFaceRecord
 10
0.0
 20
0.0
 30
0.0
 70
   128
 71
    54
 72
    56
 73
    80
  0
VERTEX
  5
16F
330
44
100
AcDbEntity
  8
New_0
 62
   254
420
 14079192
370
     0
100
AcDbFaceRecord
 10
0.0
 20
0.0
 30
0.0
 70
   128
 71
    54
 72
    80
 73
    82
  0
VERTEX
  5
170
330
44
100
AcDbEntity
  8
New_0
 62
   254
420
 14079192
370
     0
100
AcDbFaceRecord
 10
0.0
 20
0.0
 30
0.0
 70
   128
 71
    52
 72
    54
 73
    82
  0
VERTEX
  5
171
330
44
100
AcDbEntity
  8
New_0
 62
   254
420
 14079192
370
     0
100
AcDbFaceRecord
 10
0.0
 20
0.0
 30
0.0
 70
   128
 71
    52
 72
    82
 73
    84
  0
VERTEX
  5
172
330
44
100
AcDbEntity
  8
New_0
 62
   254
420
 14079192
370
     0
100
AcDbFaceRecord
 10
0.0
 20
0.0
 30
0.0
 70
   128
 71
    50
 72
    52
 73
    84
  0
VERTEX
  5
173
330
44
100
AcDbEntity
  8
New_0
 62
   254
420
 14079192
370
     0
100
AcDbFaceRecord
 10
0.0
 20
0.0
 30
0.0
 70
   128
 71
    50
 72
    84
 73
    86
  0
VERTEX
  5
174
330
44
100
AcDbEntity
  8
New_0
 62
   254
420
 14079192
370
     0
100
AcDbFaceRecord
 10
0.0
 20
0.0
 30
0.0
 70
   128
 71
    47
 72
    50
 73
    86
  0
VERTEX
  5
175
330
44
100
AcDbEntity
  8
New_0
 62
   254
420
 14079192
370
     0
100
AcDbFaceRecord
 10
0.0
 20
0.0
 30
0.0
 70
   128
 71
    47
 72
    86
 73
    88
  0
VERTEX
  5
176
330
44
100
AcDbEntity
  8
New_0
 62
   254
420
 14079192
370
     0
100
AcDbFaceRecord
 10
0.0
 20
0.0
 30
0.0
 70
   128
 71
    48
 72
    47
 73
    88
  0
VERTEX
  5
177
330
44
100
AcDbEntity
  8
New_0
 62
   254
420
 14079192
370
     0
100
AcDbFaceRecord
 10
0.0
 20
0.0
 30
0.0
 70
   128
 71
    48
 72
    88
 73
    90
  0
VERTEX
  5
178
330
44
100
AcDbEntity
  8
New_0
 62
   254
420
 14079192
370
     0
100
AcDbFaceRecord
 10
0.0
 20
0.0
 30
0.0
 70
   128
 71
    91
 72
    92
 73
    93
 74
    94
  0
VERTEX
  5
179
330
44
100
AcDbEntity
  8
New_0
 62
   254
420
 14079192
370
     0
100
AcDbFaceRecord
 10
0.0
 20
0.0
 30
0.0
 70
   128
 71
    92
 72
    95
 73
    96
 74
    93
  0
VERTEX
  5
17A
330
44
100
AcDbEntity
  8
New_0
 62
   254
420
 14079192
370
     0
100
AcDbFaceRecord
 10
0.0
 20
0.0
 30
0.0
 70
   128
 71
    95
 72
    97
 73
    98
 74
    96
  0
VERTEX
  5
17B
330
44
100
AcDbEntity
  8
New_0
 62
   254
420
 14079192
370
     0
100
AcDbFaceRecord
 10
0.0
 20
0.0
 30
0.0
 70
   128
 71
    97
 72
    99
 73
   100
 74
    98
  0
VERTEX
  5
17C
330
44
100
AcDbEntity
  8
New_0
 62
   254
420
 14079192
370
     0
100
AcDbFaceRecord
 10
0.0
 20
0.0
 30
0.0
 70
   128
 71
    99
 72
   101
 73
   102
 74
   100
  0
VERTEX
  5
17D
330
44
100
AcDbEntity
  8
New_0
 62
   254
420
 14079192
370
     0
100
AcDbFaceRecord
 10
0.0
 20
0.0
 30
0.0
 70
   128
 71
   101
 72
   103
 73
   104
 74
   102
  0
VERTEX
  5
17E
330
44
100
AcDbEntity
  8
New_0
 62
   254
420
 14079192
370
     0
100
AcDbFaceRecord
 10
0.0
 20
0.0
 30
0.0
 70
   128
 71
   103
 72
   105
 73
   106
 74
   104
  0
VERTEX
  5
17F
330
44
100
AcDbEntity
  8
New_0
 62
   254
420
 14079192
370
     0
100
AcDbFaceRecord
 10
0.0
 20
0.0
 30
0.0
 70
   128
 71
   105
 72
   107
 73
   108
 74
   106
  0
VERTEX
  5
180
330
44
100
AcDbEntity
  8
New_0
 62
   254
420
 14079192
370
     0
100
AcDbFaceRecord
 10
0.0
 20
0.0
 30
0.0
 70
   128
 71
   107
 72
   109
 73
   110
 74
   108
  0
VERTEX
  5
181
330
44
100
AcDbEntity
  8
New_0
 62
   254
420
 14079192
370
     0
100
AcDbFaceRecord
 10
0.0
 20
0.0
 30
0.0
 70
   128
 71
   109
 72
   111
 73
   112
 74
   110
  0
VERTEX
  5
182
330
44
100
AcDbEntity
  8
New_0
 62
   254
420
 14079192
370
     0
100
AcDbFaceRecord
 10
0.0
 20
0.0
 30
0.0
 70
   128
 71
   111
 72
   113
 73
   114
 74
   112
  0
VERTEX
  5
183
330
44
100
AcDbEntity
  8
New_0
 62
   254
420
 14079192
370
     0
100
AcDbFaceRecord
 10
0.0
 20
0.0
 30
0.0
 70
   128
 71
   113
 72
    91
 73
    94
 74
   114
  0
VERTEX
  5
184
330
44
100
AcDbEntity
  8
New_0
 62
   254
420
 14079192
370
     0
100
AcDbFaceRecord
 10
0.0
 20
0.0
 30
0.0
 70
   128
 71
   109
 72
   107
 73
    97
  0
VERTEX
  5
185
330
44
100
AcDbEntity
  8
New_0
 62
   254
420
 14079192
370
     0
100
AcDbFaceRecord
 10
0.0
 20
0.0
 30
0.0
 70
   128
 71
   109
 72
    97
 73
    95
  0
VERTEX
  5
186
330
44
100
AcDbEntity
  8
New_0
 62
   254
420
 14079192
370
     0
100
AcDbFaceRecord
 10
0.0
 20
0.0
 30
0.0
 70
   128
 71
    97
 72
   107
 73
   105
  0
VERTEX
  5
187
330
44
100
AcDbEntity
  8
New_0
 62
   254
420
 14079192
370
     0
100
AcDbFaceRecord
 10
0.0
 20
0.0
 30
0.0
 70
   128
 71
   111
 72
   109
 73
    95
  0
VERTEX
  5
188
330
44
100
AcDbEntity
  8
New_0
 62
   254
420
 14079192
370
     0
100
AcDbFaceRecord
 10
0.0
 20
0.0
 30
0.0
 70
   128
 71
    99
 72
    97
 73
   105
  0
VERTEX
  5
189
330
44
100
AcDbEntity
  8
New_0
 62
   254
420
 14079192
370
     0
100
AcDbFaceRecord
 10
0.0
 20
0.0
 30
0.0
 70
   128
 71
    99
 72
   105
 73
   101
  0
VERTEX
  5
18A
330
44
100
AcDbEntity
  8
New_0
 62
   254
420
 14079192
370
     0
100
AcDbFaceRecord
 10
0.0
 20
0.0
 30
0.0
 70
   128
 71
   101
 72
   105
 73
   103
  0
VERTEX
  5
18B
330
44
100
AcDbEntity
  8
New_0
 62
   254
420
 14079192
370
     0
100
AcDbFaceRecord
 10
0.0
 20
0.0
 30
0.0
 70
   128
 71
    91
 72
   113
 73
   111
  0
VERTEX
  5
18C
330
44
100
AcDbEntity
  8
New_0
 62
   254
420
 14079192
370
     0
100
AcDbFaceRecord
 10
0.0
 20
0.0
 30
0.0
 70
   128
 71
    91
 72
   111
 73
    92
  0
VERTEX
  5
18D
330
44
100
AcDbEntity
  8
New_0
 62
   254
420
 14079192
370
     0
100
AcDbFaceRecord
 10
0.0
 20
0.0
 30
0.0
 70
   128
 71
    92
 72
   111
 73
    95
  0
VERTEX
  5
18E
330
44
100
AcDbEntity
  8
New_0
 62
   254
420
 14079192
370
     0
100
AcDbFaceRecord
 10
0.0
 20
0.0
 30
0.0
 70
   128
 71
   108
 72
   110
 73
    96
  0
VERTEX
  5
18F
330
44
100
AcDbEntity
  8
New_0
 62
   254
420
 14079192
370
     0
100
AcDbFaceRecord
 10
0.0
 20
0.0
 30
0.0
 70
   128
 71
   108
 72
    96
 73
    98
  0
VERTEX
  5
190
330
44
100
AcDbEntity
  8
New_0
 62
   254
420
 14079192
370
     0
100
AcDbFaceRecord
 10
0.0
 20
0.0
 30
0.0
 70
   128
 71
    96
 72
   110
 73
   112
  0
VERTEX
  5
191
330
44
100
AcDbEntity
  8
New_0
 62
   254
420
 14079192
370
     0
100
AcDbFaceRecord
 10
0.0
 20
0.0
 30
0.0
 70
   128
 71
   106
 72
   108
 73
    98
  0
VERTEX
  5
192
330
44
100
AcDbEntity
  8
New_0
 62
   254
420
 14079192
370
     0
100
AcDbFaceRecord
 10
0.0
 20
0.0
 30
0.0
 70
   128
 71
    93
 72
    96
 73
   112
  0
VERTEX
  5
193
330
44
100
AcDbEntity
  8
New_0
 62
   254
420
 14079192
370
     0
100
AcDbFaceRecord
 10
0.0
 20
0.0
 30
0.0
 70
   128
 71
    93
 72
   112
 73
    94
  0
VERTEX
  5
194
330
44
100
AcDbEntity
  8
New_0
 62
   254
420
 14079192
370
     0
100
AcDbFaceRecord
 10
0.0
 20
0.0
 30
0.0
 70
   128
 71
    94
 72
   112
 73
   114
  0
VERTEX
  5
195
330
44
100
AcDbEntity
  8
New_0
 62
   254
420
 14079192
370
     0
100
AcDbFaceRecord
 10
0.0
 20
0.0
 30
0.0
 70
   128
 71
   102
 72
   104
 73
   106
  0
VERTEX
  5
196
330
44
100
AcDbEntity
  8
New_0
 62
   254
420
 14079192
370
     0
100
AcDbFaceRecord
 10
0.0
 20
0.0
 30
0.0
 70
   128
 71
   102
 72
   106
 73
   100
  0
VERTEX
  5
197
330
44
100
AcDbEntity
  8
New_0
 62
   254
420
 14079192
370
     0
100
AcDbFaceRecord
 10
0.0
 20
0.0
 30
0.0
 70
   128
 71
   100
 72
   106
 73
    98
  0
VERTEX
  5
198
330
44
100
AcDbEntity
  8
New_0
 62
   254
420
 14079192
370
     0
100
AcDbFaceRecord
 10
0.0
 20
0.0
 30
0.0
 70
   128
 71
   115
 72
   116
 73
   117
 74
   118
  0
VERTEX
  5
199
330
44
100
AcDbEntity
  8
New_0
 62
   254
420
 14079192
370
     0
100
AcDbFaceRecord
 10
0.0
 20
0.0
 30
0.0
 70
   128
 71
   116
 72
   119
 73
   120
 74
   117
  0
VERTEX
  5
19A
330
44
100
AcDbEntity
  8
New_0
 62
   254
420
 14079192
370
     0
100
AcDbFaceRecord
 10
0.0
 20
0.0
 30
0.0
 70
   128
 71
   119
 72
   121
 73
   122
 74
   120
  0
VERTEX
  5
19B
330
44
100
AcDbEntity
  8
New_0
 62
   254
420
 14079192
370
     0
100
AcDbFaceRecord
 10
0.0
 20
0.0
 30
0.0
 70
   128
 71
   121
 72
   123
 73
   124
 74
   122
  0
VERTEX
  5
19C
330
44
100
AcDbEntity
  8
New_0
 62
   254
420
 14079192
370
     0
100
AcDbFaceRecord
 10
0.0
 20
0.0
 30
0.0
 70
   128
 71
   123
 72
   125
 73
   126
 74
   124
  0
VERTEX
  5
19D
330
44
100
AcDbEntity
  8
New_0
 62
   254
420
 14079192
370
     0
100
AcDbFaceRecord
 10
0.0
 20
0.0
 30
0.0
 70
   128
 71
   125
 72
   115
 73
   118
 74
   126
  0
VERTEX
  5
19E
330
44
100
AcDbEntity
  8
New_0
 62
   254
420
 14079192
370
     0
100
AcDbFaceRecord
 10
0.0
 20
0.0
 30
0.0
 70
   128
 71
   116
 72
   115
 73
   125
  0
VERTEX
  5
19F
330
44
100
AcDbEntity
  8
New_0
 62
   254
420
 14079192
370
     0
100
AcDbFaceRecord
 10
0.0
 20
0.0
 30
0.0
 70
   128
 71
   116
 72
   125
 73
   123
  0
VERTEX
  5
1A0
330
44
100
AcDbEntity
  8
New_0
 62
   254
420
 14079192
370
     0
100
AcDbFaceRecord
 10
0.0
 20
0.0
 30
0.0
 70
   128
 71
   119
 72
   116
 73
   123
  0
VERTEX
  5
1A1
330
44
100
AcDbEntity
  8
New_0
 62
   254
420
 14079192
370
     0
100
AcDbFaceRecord
 10
0.0
 20
0.0
 30
0.0
 70
   128
 71
   119
 72
   123
 73
   121
  0
VERTEX
  5
1A2
330
44
100
AcDbEntity
  8
New_0
 62
   254
420
 14079192
370
     0
100
AcDbFaceRecord
 10
0.0
 20
0.0
 30
0.0
 70
   128
 71
   124
 72
   126
 73
   118
  0
VERTEX
  5
1A3
330
44
100
AcDbEntity
  8
New_0
 62
   254
420
 14079192
370
     0
100
AcDbFaceRecord
 10
0.0
 20
0.0
 30
0.0
 70
   128
 71
   124
 72
   118
 73
   117
  0
VERTEX
  5
1A4
330
44
100
AcDbEntity
  8
New_0
 62
   254
420
 14079192
370
     0
100
AcDbFaceRecord
 10
0.0
 20
0.0
 30
0.0
 70
   128
 71
   122
 72
   124
 73
   117
  0
VERTEX
  5
1A5
330
44
100
AcDbEntity
  8
New_0
 62
   254
420
 14079192
370
     0
100
AcDbFaceRecord
 10
0.0
 20
0.0
 30
0.0
 70
   128
 71
   122
 72
   117
 73
   120
  0
VERTEX
  5
1A6
330
44
100
AcDbEntity
  8
New_0
 62
   254
420
 14079192
370
     0
100
AcDbFaceRecord
 10
0.0
 20
0.0
 30
0.0
 70
   128
 71
   127
 72
   128
 73
   129
 74
   130
  0
VERTEX
  5
1A7
330
44
100
AcDbEntity
  8
New_0
 62
   254
420
 14079192
370
     0
100
AcDbFaceRecord
 10
0.0
 20
0.0
 30
0.0
 70
   128
 71
   128
 72
   131
 73
   132
 74
   129
  0
VERTEX
  5
1A8
330
44
100
AcDbEntity
  8
New_0
 62
   254
420
 14079192
370
     0
100
AcDbFaceRecord
 10
0.0
 20
0.0
 30
0.0
 70
   128
 71
   131
 72
   133
 73
   134
 74
   132
  0
VERTEX
  5
1A9
330
44
100
AcDbEntity
  8
New_0
 62
   254
420
 14079192
370
     0
100
AcDbFaceRecord
 10
0.0
 20
0.0
 30
0.0
 70
   128
 71
   133
 72
   127
 73
   130
 74
   134
  0
VERTEX
  5
1AA
330
44
100
AcDbEntity
  8
New_0
 62
   254
420
 14079192
370
     0
100
AcDbFaceRecord
 10
0.0
 20
0.0
 30
0.0
 70
   128
 71
   127
 72
   133
 73
   131
 74
   128
  0
VERTEX
  5
1AB
330
44
100
AcDbEntity
  8
New_0
 62
   254
420
 14079192
370
     0
100
AcDbFaceRecord
 10
0.0
 20
0.0
 30
0.0
 70
   128
 71
   130
 72
   129
 73
   132
 74
   134
  0
VERTEX
  5
1AC
330
44
100
AcDbEntity
  8
New_0
 62
   254
420
 14079192
370
     0
100
AcDbFaceRecord
 10
0.0
 20
0.0
 30
0.0
 70
   128
 71
   135
 72
   136
 73
   137
 74
   138
  0
VERTEX
  5
1AD
330
44
100
AcDbEntity
  8
New_0
 62
   254
420
 14079192
370
     0
100
AcDbFaceRecord
 10
0.0
 20
0.0
 30
0.0
 70
   128
 71
   136
 72
   139
 73
   140
 74
   137
  0
VERTEX
  5
1AE
330
44
100
AcDbEntity
  8
New_0
 62
   254
420
 14079192
370
     0
100
AcDbFaceRecord
 10
0.0
 20
0.0
 30
0.0
 70
   128
 71
   139
 72
   141
 73
   142
 74
   140
  0
VERTEX
  5
1AF
330
44
100
AcDbEntity
  8
New_0
 62
   254
420
 14079192
370
     0
100
AcDbFaceRecord
 10
0.0
 20
0.0
 30
0.0
 70
   128
 71
   141
 72
   143
 73
   144
 74
   142
  0
VERTEX
  5
1B0
330
44
100
AcDbEntity
  8
New_0
 62
   254
420
 14079192
370
     0
100
AcDbFaceRecord
 10
0.0
 20
0.0
 30
0.0
 70
   128
 71
   143
 72
   145
 73
   146
 74
   144
  0
VERTEX
  5
1B1
330
44
100
AcDbEntity
  8
New_0
 62
   254
420
 14079192
370
     0
100
AcDbFaceRecord
 10
0.0
 20
0.0
 30
0.0
 70
   128
 71
   145
 72
   147
 73
   148
 74
   146
  0
VERTEX
  5
1B2
330
44
100
AcDbEntity
  8
New_0
 62
   254
420
 14079192
370
     0
100
AcDbFaceRecord
 10
0.0
 20
0.0
 30
0.0
 70
   128
 71
   147
 72
   149
 73
   150
 74
   148
  0
VERTEX
  5
1B3
330
44
100
AcDbEntity
  8
New_0
 62
   254
420
 14079192
370
     0
100
AcDbFaceRecord
 10
0.0
 20
0.0
 30
0.0
 70
   128
 71
   149
 72
   151
 73
   152
 74
   150
  0
VERTEX
  5
1B4
330
44
100
AcDbEntity
  8
New_0
 62
   254
420
 14079192
370
     0
100
AcDbFaceRecord
 10
0.0
 20
0.0
 30
0.0
 70
   128
 71
   151
 72
   153
 73
   154
 74
   152
  0
VERTEX
  5
1B5
330
44
100
AcDbEntity
  8
New_0
 62
   254
420
 14079192
370
     0
100
AcDbFaceRecord
 10
0.0
 20
0.0
 30
0.0
 70
   128
 71
   153
 72
   155
 73
   156
 74
   154
  0
VERTEX
  5
1B6
330
44
100
AcDbEntity
  8
New_0
 62
   254
420
 14079192
370
     0
100
AcDbFaceRecord
 10
0.0
 20
0.0
 30
0.0
 70
   128
 71
   155
 72
   157
 73
   158
 74
   156
  0
VERTEX
  5
1B7
330
44
100
AcDbEntity
  8
New_0
 62
   254
420
 14079192
370
     0
100
AcDbFaceRecord
 10
0.0
 20
0.0
 30
0.0
 70
   128
 71
   157
 72
   159
 73
   160
 74
   158
  0
VERTEX
  5
1B8
330
44
100
AcDbEntity
  8
New_0
 62
   254
420
 14079192
370
     0
100
AcDbFaceRecord
 10
0.0
 20
0.0
 30
0.0
 70
   128
 71
   159
 72
   161
 73
   162
 74
   160
  0
VERTEX
  5
1B9
330
44
100
AcDbEntity
  8
New_0
 62
   254
420
 14079192
370
     0
100
AcDbFaceRecord
 10
0.0
 20
0.0
 30
0.0
 70
   128
 71
   161
 72
   163
 73
   164
 74
   162
  0
VERTEX
  5
1BA
330
44
100
AcDbEntity
  8
New_0
 62
   254
420
 14079192
370
     0
100
AcDbFaceRecord
 10
0.0
 20
0.0
 30
0.0
 70
   128
 71
   163
 72
   165
 73
   166
 74
   164
  0
VERTEX
  5
1BB
330
44
100
AcDbEntity
  8
New_0
 62
   254
420
 14079192
370
     0
100
AcDbFaceRecord
 10
0.0
 20
0.0
 30
0.0
 70
   128
 71
   165
 72
   167
 73
   168
 74
   166
  0
VERTEX
  5
1BC
330
44
100
AcDbEntity
  8
New_0
 62
   254
420
 14079192
370
     0
100
AcDbFaceRecord
 10
0.0
 20
0.0
 30
0.0
 70
   128
 71
   167
 72
   169
 73
   170
 74
   168
  0
VERTEX
  5
1BD
330
44
100
AcDbEntity
  8
New_0
 62
   254
420
 14079192
370
     0
100
AcDbFaceRecord
 10
0.0
 20
0.0
 30
0.0
 70
   128
 71
   169
 72
   171
 73
   172
 74
   170
  0
VERTEX
  5
1BE
330
44
100
AcDbEntity
  8
New_0
 62
   254
420
 14079192
370
     0
100
AcDbFaceRecord
 10
0.0
 20
0.0
 30
0.0
 70
   128
 71
   171
 72
   173
 73
   174
 74
   172
  0
VERTEX
  5
1BF
330
44
100
AcDbEntity
  8
New_0
 62
   254
420
 14079192
370
     0
100
AcDbFaceRecord
 10
0.0
 20
0.0
 30
0.0
 70
   128
 71
   173
 72
   175
 73
   176
 74
   174
  0
VERTEX
  5
1C0
330
44
100
AcDbEntity
  8
New_0
 62
   254
420
 14079192
370
     0
100
AcDbFaceRecord
 10
0.0
 20
0.0
 30
0.0
 70
   128
 71
   175
 72
   177
 73
   178
 74
   176
  0
VERTEX
  5
1C1
330
44
100
AcDbEntity
  8
New_0
 62
   254
420
 14079192
370
     0
100
AcDbFaceRecord
 10
0.0
 20
0.0
 30
0.0
 70
   128
 71
   177
 72
   179
 73
   180
 74
   178
  0
VERTEX
  5
1C2
330
44
100
AcDbEntity
  8
New_0
 62
   254
420
 14079192
370
     0
100
AcDbFaceRecord
 10
0.0
 20
0.0
 30
0.0
 70
   128
 71
   179
 72
   135
 73
   138
 74
   180
  0
VERTEX
  5
1C3
330
44
100
AcDbEntity
  8
New_0
 62
   254
420
 14079192
370
     0
100
AcDbFaceRecord
 10
0.0
 20
0.0
 30
0.0
 70
   128
 71
   159
 72
   157
 73
   155
  0
VERTEX
  5
1C4
330
44
100
AcDbEntity
  8
New_0
 62
   254
420
 14079192
370
     0
100
AcDbFaceRecord
 10
0.0
 20
0.0
 30
0.0
 70
   128
 71
   161
 72
   159
 73
   155
  0
VERTEX
  5
1C5
330
44
100
AcDbEntity
  8
New_0
 62
   254
420
 14079192
370
     0
100
AcDbFaceRecord
 10
0.0
 20
0.0
 30
0.0
 70
   128
 71
   161
 72
   155
 73
   153
  0
VERTEX
  5
1C6
330
44
100
AcDbEntity
  8
New_0
 62
   254
420
 14079192
370
     0
100
AcDbFaceRecord
 10
0.0
 20
0.0
 30
0.0
 70
   128
 71
   163
 72
   161
 73
   153
  0
VERTEX
  5
1C7
330
44
100
AcDbEntity
  8
New_0
 62
   254
420
 14079192
370
     0
100
AcDbFaceRecord
 10
0.0
 20
0.0
 30
0.0
 70
   128
 71
   163
 72
   153
 73
   151
  0
VERTEX
  5
1C8
330
44
100
AcDbEntity
  8
New_0
 62
   254
420
 14079192
370
     0
100
AcDbFaceRecord
 10
0.0
 20
0.0
 30
0.0
 70
   128
 71
   165
 72
   163
 73
   151
  0
VERTEX
  5
1C9
330
44
100
AcDbEntity
  8
New_0
 62
   254
420
 14079192
370
     0
100
AcDbFaceRecord
 10
0.0
 20
0.0
 30
0.0
 70
   128
 71
   165
 72
   151
 73
   149
  0
VERTEX
  5
1CA
330
44
100
AcDbEntity
  8
New_0
 62
   254
420
 14079192
370
     0
100
AcDbFaceRecord
 10
0.0
 20
0.0
 30
0.0
 70
   128
 71
   167
 72
   165
 73
   149
  0
VERTEX
  5
1CB
330
44
100
AcDbEntity
  8
New_0
 62
   254
420
 14079192
370
     0
100
AcDbFaceRecord
 10
0.0
 20
0.0
 30
0.0
 70
   128
 71
   167
 72
   149
 73
   147
  0
VERTEX
  5
1CC
330
44
100
AcDbEntity
  8
New_0
 62
   254
420
 14079192
370
     0
100
AcDbFaceRecord
 10
0.0
 20
0.0
 30
0.0
 70
   128
 71
   169
 72
   167
 73
   147
  0
VERTEX
  5
1CD
330
44
100
AcDbEntity
  8
New_0
 62
   254
420
 14079192
370
     0
100
AcDbFaceRecord
 10
0.0
 20
0.0
 30
0.0
 70
   128
 71
   169
 72
   147
 73
   145
  0
VERTEX
  5
1CE
330
44
100
AcDbEntity
  8
New_0
 62
   254
420
 14079192
370
     0
100
AcDbFaceRecord
 10
0.0
 20
0.0
 30
0.0
 70
   128
 71
   171
 72
   169
 73
   145
  0
VERTEX
  5
1CF
330
44
100
AcDbEntity
  8
New_0
 62
   254
420
 14079192
370
     0
100
AcDbFaceRecord
 10
0.0
 20
0.0
 30
0.0
 70
   128
 71
   171
 72
   145
 73
   143
  0
VERTEX
  5
1D0
330
44
100
AcDbEntity
  8
New_0
 62
   254
420
 14079192
370
     0
100
AcDbFaceRecord
 10
0.0
 20
0.0
 30
0.0
 70
   128
 71
   173
 72
   171
 73
   143
  0
VERTEX
  5
1D1
330
44
100
AcDbEntity
  8
New_0
 62
   254
420
 14079192
370
     0
100
AcDbFaceRecord
 10
0.0
 20
0.0
 30
0.0
 70
   128
 71
   173
 72
   143
 73
   141
  0
VERTEX
  5
1D2
330
44
100
AcDbEntity
  8
New_0
 62
   254
420
 14079192
370
     0
100
AcDbFaceRecord
 10
0.0
 20
0.0
 30
0.0
 70
   128
 71
   175
 72
   173
 73
   141
  0
VERTEX
  5
1D3
330
44
100
AcDbEntity
  8
New_0
 62
   254
420
 14079192
370
     0
100
AcDbFaceRecord
 10
0.0
 20
0.0
 30
0.0
 70
   128
 71
   175
 72
   141
 73
   139
  0
VERTEX
  5
1D4
330
44
100
AcDbEntity
  8
New_0
 62
   254
420
 14079192
370
     0
100
AcDbFaceRecord
 10
0.0
 20
0.0
 30
0.0
 70
   128
 71
   177
 72
   175
 73
   139
  0
VERTEX
  5
1D5
330
44
100
AcDbEntity
  8
New_0
 62
   254
420
 14079192
370
     0
100
AcDbFaceRecord
 10
0.0
 20
0.0
 30
0.0
 70
   128
 71
   177
 72
   139
 73
   136
  0
VERTEX
  5
1D6
330
44
100
AcDbEntity
  8
New_0
 62
   254
420
 14079192
370
     0
100
AcDbFaceRecord
 10
0.0
 20
0.0
 30
0.0
 70
   128
 71
   179
 72
   177
 73
   136
  0
VERTEX
  5
1D7
330
44
100
AcDbEntity
  8
New_0
 62
   254
420
 14079192
370
     0
100
AcDbFaceRecord
 10
0.0
 20
0.0
 30
0.0
 70
   128
 71
   179
 72
   136
 73
   135
  0
VERTEX
  5
1D8
330
44
100
AcDbEntity
  8
New_0
 62
   254
420
 14079192
370
     0
100
AcDbFaceRecord
 10
0.0
 20
0.0
 30
0.0
 70
   128
 71
   156
 72
   158
 73
   160
  0
VERTEX
  5
1D9
330
44
100
AcDbEntity
  8
New_0
 62
   254
420
 14079192
370
     0
100
AcDbFaceRecord
 10
0.0
 20
0.0
 30
0.0
 70
   128
 71
   154
 72
   156
 73
   160
  0
VERTEX
  5
1DA
330
44
100
AcDbEntity
  8
New_0
 62
   254
420
 14079192
370
     0
100
AcDbFaceRecord
 10
0.0
 20
0.0
 30
0.0
 70
   128
 71
   154
 72
   160
 73
   162
  0
VERTEX
  5
1DB
330
44
100
AcDbEntity
  8
New_0
 62
   254
420
 14079192
370
     0
100
AcDbFaceRecord
 10
0.0
 20
0.0
 30
0.0
 70
   128
 71
   152
 72
   154
 73
   162
  0
VERTEX
  5
1DC
330
44
100
AcDbEntity
  8
New_0
 62
   254
420
 14079192
370
     0
100
AcDbFaceRecord
 10
0.0
 20
0.0
 30
0.0
 70
   128
 71
   152
 72
   162
 73
   164
  0
VERTEX
  5
1DD
330
44
100
AcDbEntity
  8
New_0
 62
   254
420
 14079192
370
     0
100
AcDbFaceRecord
 10
0.0
 20
0.0
 30
0.0
 70
   128
 71
   150
 72
   152
 73
   164
  0
VERTEX
  5
1DE
330
44
100
AcDbEntity
  8
New_0
 62
   254
420
 14079192
370
     0
100
AcDbFaceRecord
 10
0.0
 20
0.0
 30
0.0
 70
   128
 71
   150
 72
   164
 73
   166
  0
VERTEX
  5
1DF
330
44
100
AcDbEntity
  8
New_0
 62
   254
420
 14079192
370
     0
100
AcDbFaceRecord
 10
0.0
 20
0.0
 30
0.0
 70
   128
 71
   148
 72
   150
 73
   166
  0
VERTEX
  5
1E0
330
44
100
AcDbEntity
  8
New_0
 62
   254
420
 14079192
370
     0
100
AcDbFaceRecord
 10
0.0
 20
0.0
 30
0.0
 70
   128
 71
   148
 72
   166
 73
   168
  0
VERTEX
  5
1E1
330
44
100
AcDbEntity
  8
New_0
 62
   254
420
 14079192
370
     0
100
AcDbFaceRecord
 10
0.0
 20
0.0
 30
0.0
 70
   128
 71
   146
 72
   148
 73
   168
  0
VERTEX
  5
1E2
330
44
100
AcDbEntity
  8
New_0
 62
   254
420
 14079192
370
     0
100
AcDbFaceRecord
 10
0.0
 20
0.0
 30
0.0
 70
   128
 71
   146
 72
   168
 73
   170
  0
VERTEX
  5
1E3
330
44
100
AcDbEntity
  8
New_0
 62
   254
420
 14079192
370
     0
100
AcDbFaceRecord
 10
0.0
 20
0.0
 30
0.0
 70
   128
 71
   144
 72
   146
 73
   170
  0
VERTEX
  5
1E4
330
44
100
AcDbEntity
  8
New_0
 62
   254
420
 14079192
370
     0
100
AcDbFaceRecord
 10
0.0
 20
0.0
 30
0.0
 70
   128
 71
   144
 72
   170
 73
   172
  0
VERTEX
  5
1E5
330
44
100
AcDbEntity
  8
New_0
 62
   254
420
 14079192
370
     0
100
AcDbFaceRecord
 10
0.0
 20
0.0
 30
0.0
 70
   128
 71
   142
 72
   144
 73
   172
  0
VERTEX
  5
1E6
330
44
100
AcDbEntity
  8
New_0
 62
   254
420
 14079192
370
     0
100
AcDbFaceRecord
 10
0.0
 20
0.0
 30
0.0
 70
   128
 71
   142
 72
   172
 73
   174
  0
VERTEX
  5
1E7
330
44
100
AcDbEntity
  8
New_0
 62
   254
420
 14079192
370
     0
100
AcDbFaceRecord
 10
0.0
 20
0.0
 30
0.0
 70
   128
 71
   140
 72
   142
 73
   174
  0
VERTEX
  5
1E8
330
44
100
AcDbEntity
  8
New_0
 62
   254
420
 14079192
370
     0
100
AcDbFaceRecord
 10
0.0
 20
0.0
 30
0.0
 70
   128
 71
   140
 72
   174
 73
   176
  0
VERTEX
  5
1E9
330
44
100
AcDbEntity
  8
New_0
 62
   254
420
 14079192
370
     0
100
AcDbFaceRecord
 10
0.0
 20
0.0
 30
0.0
 70
   128
 71
   137
 72
   140
 73
   176
  0
VERTEX
  5
1EA
330
44
100
AcDbEntity
  8
New_0
 62
   254
420
 14079192
370
     0
100
AcDbFaceRecord
 10
0.0
 20
0.0
 30
0.0
 70
   128
 71
   137
 72
   176
 73
   178
  0
VERTEX
  5
1EB
330
44
100
AcDbEntity
  8
New_0
 62
   254
420
 14079192
370
     0
100
AcDbFaceRecord
 10
0.0
 20
0.0
 30
0.0
 70
   128
 71
   138
 72
   137
 73
   178
  0
VERTEX
  5
1EC
330
44
100
AcDbEntity
  8
New_0
 62
   254
420
 14079192
370
     0
100
AcDbFaceRecord
 10
0.0
 20
0.0
 30
0.0
 70
   128
 71
   138
 72
   178
 73
   180
  0
VERTEX
  5
1ED
330
44
100
AcDbEntity
  8
New_0
 62
   254
420
 14079192
370
     0
100
AcDbFaceRecord
 10
0.0
 20
0.0
 30
0.0
 70
   128
 71
   181
 72
   182
 73
   183
 74
   184
  0
VERTEX
  5
1EE
330
44
100
AcDbEntity
  8
New_0
 62
   254
420
 14079192
370
     0
100
AcDbFaceRecord
 10
0.0
 20
0.0
 30
0.0
 70
   128
 71
   182
 72
   185
 73
   186
 74
   183
  0
VERTEX
  5
1EF
330
44
100
AcDbEntity
  8
New_0
 62
   254
420
 14079192
370
     0
100
AcDbFaceRecord
 10
0.0
 20
0.0
 30
0.0
 70
   128
 71
   185
 72
   187
 73
   188
 74
   186
  0
VERTEX
  5
1F0
330
44
100
AcDbEntity
  8
New_0
 62
   254
420
 14079192
370
     0
100
AcDbFaceRecord
 10
0.0
 20
0.0
 30
0.0
 70
   128
 71
   187
 72
   189
 73
   190
 74
   188
  0
VERTEX
  5
1F1
330
44
100
AcDbEntity
  8
New_0
 62
   254
420
 14079192
370
     0
100
AcDbFaceRecord
 10
0.0
 20
0.0
 30
0.0
 70
   128
 71
   189
 72
   191
 73
   192
 74
   190
  0
VERTEX
  5
1F2
330
44
100
AcDbEntity
  8
New_0
 62
   254
420
 14079192
370
     0
100
AcDbFaceRecord
 10
0.0
 20
0.0
 30
0.0
 70
   128
 71
   191
 72
   193
 73
   194
 74
   192
  0
VERTEX
  5
1F3
330
44
100
AcDbEntity
  8
New_0
 62
   254
420
 14079192
370
     0
100
AcDbFaceRecord
 10
0.0
 20
0.0
 30
0.0
 70
   128
 71
   193
 72
   195
 73
   196
 74
   194
  0
VERTEX
  5
1F4
330
44
100
AcDbEntity
  8
New_0
 62
   254
420
 14079192
370
     0
100
AcDbFaceRecord
 10
0.0
 20
0.0
 30
0.0
 70
   128
 71
   195
 72
   197
 73
   198
 74
   196
  0
VERTEX
  5
1F5
330
44
100
AcDbEntity
  8
New_0
 62
   254
420
 14079192
370
     0
100
AcDbFaceRecord
 10
0.0
 20
0.0
 30
0.0
 70
   128
 71
   197
 72
   199
 73
   200
 74
   198
  0
VERTEX
  5
1F6
330
44
100
AcDbEntity
  8
New_0
 62
   254
420
 14079192
370
     0
100
AcDbFaceRecord
 10
0.0
 20
0.0
 30
0.0
 70
   128
 71
   199
 72
   201
 73
   202
 74
   200
  0
VERTEX
  5
1F7
330
44
100
AcDbEntity
  8
New_0
 62
   254
420
 14079192
370
     0
100
AcDbFaceRecord
 10
0.0
 20
0.0
 30
0.0
 70
   128
 71
   201
 72
   203
 73
   204
 74
   202
  0
VERTEX
  5
1F8
330
44
100
AcDbEntity
  8
New_0
 62
   254
420
 14079192
370
     0
100
AcDbFaceRecord
 10
0.0
 20
0.0
 30
0.0
 70
   128
 71
   203
 72
   181
 73
   184
 74
   204
  0
VERTEX
  5
1F9
330
44
100
AcDbEntity
  8
New_0
 62
   254
420
 14079192
370
     0
100
AcDbFaceRecord
 10
0.0
 20
0.0
 30
0.0
 70
   128
 71
   199
 72
   197
 73
   187
  0
VERTEX
  5
1FA
330
44
100
AcDbEntity
  8
New_0
 62
   254
420
 14079192
370
     0
100
AcDbFaceRecord
 10
0.0
 20
0.0
 30
0.0
 70
   128
 71
   199
 72
   187
 73
   185
  0
VERTEX
  5
1FB
330
44
100
AcDbEntity
  8
New_0
 62
   254
420
 14079192
370
     0
100
AcDbFaceRecord
 10
0.0
 20
0.0
 30
0.0
 70
   128
 71
   187
 72
   197
 73
   195
  0
VERTEX
  5
1FC
330
44
100
AcDbEntity
  8
New_0
 62
   254
420
 14079192
370
     0
100
AcDbFaceRecord
 10
0.0
 20
0.0
 30
0.0
 70
   128
 71
   201
 72
   199
 73
   185
  0
VERTEX
  5
1FD
330
44
100
AcDbEntity
  8
New_0
 62
   254
420
 14079192
370
     0
100
AcDbFaceRecord
 10
0.0
 20
0.0
 30
0.0
 70
   128
 71
   189
 72
   187
 73
   195
  0
VERTEX
  5
1FE
330
44
100
AcDbEntity
  8
New_0
 62
   254
420
 14079192
370
     0
100
AcDbFaceRecord
 10
0.0
 20
0.0
 30
0.0
 70
   128
 71
   189
 72
   195
 73
   191
  0
VERTEX
  5
1FF
330
44
100
AcDbEntity
  8
New_0
 62
   254
420
 14079192
370
     0
100
AcDbFaceRecord
 10
0.0
 20
0.0
 30
0.0
 70
   128
 71
   191
 72
   195
 73
   193
  0
VERTEX
  5
200
330
44
100
AcDbEntity
  8
New_0
 62
   254
420
 14079192
370
     0
100
AcDbFaceRecord
 10
0.0
 20
0.0
 30
0.0
 70
   128
 71
   181
 72
   203
 73
   201
  0
VERTEX
  5
201
330
44
100
AcDbEntity
  8
New_0
 62
   254
420
 14079192
370
     0
100
AcDbFaceRecord
 10
0.0
 20
0.0
 30
0.0
 70
   128
 71
   181
 72
   201
 73
   182
  0
VERTEX
  5
202
330
44
100
AcDbEntity
  8
New_0
 62
   254
420
 14079192
370
     0
100
AcDbFaceRecord
 10
0.0
 20
0.0
 30
0.0
 70
   128
 71
   182
 72
   201
 73
   185
  0
VERTEX
  5
203
330
44
100
AcDbEntity
  8
New_0
 62
   254
420
 14079192
370
     0
100
AcDbFaceRecord
 10
0.0
 20
0.0
 30
0.0
 70
   128
 71
   198
 72
   200
 73
   186
  0
VERTEX
  5
204
330
44
100
AcDbEntity
  8
New_0
 62
   254
420
 14079192
370
     0
100
AcDbFaceRecord
 10
0.0
 20
0.0
 30
0.0
 70
   128
 71
   198
 72
   186
 73
   188
  0
VERTEX
  5
205
330
44
100
AcDbEntity
  8
New_0
 62
   254
420
 14079192
370
     0
100
AcDbFaceRecord
 10
0.0
 20
0.0
 30
0.0
 70
   128
 71
   186
 72
   200
 73
   202
  0
VERTEX
  5
206
330
44
100
AcDbEntity
  8
New_0
 62
   254
420
 14079192
370
     0
100
AcDbFaceRecord
 10
0.0
 20
0.0
 30
0.0
 70
   128
 71
   196
 72
   198
 73
   188
  0
VERTEX
  5
207
330
44
100
AcDbEntity
  8
New_0
 62
   254
420
 14079192
370
     0
100
AcDbFaceRecord
 10
0.0
 20
0.0
 30
0.0
 70
   128
 71
   183
 72
   186
 73
   202
  0
VERTEX
  5
208
330
44
100
AcDbEntity
  8
New_0
 62
   254
420
 14079192
370
     0
100
AcDbFaceRecord
 10
0.0
 20
0.0
 30
0.0
 70
   128
 71
   183
 72
   202
 73
   184
  0
VERTEX
  5
209
330
44
100
AcDbEntity
  8
New_0
 62
   254
420
 14079192
370
     0
100
AcDbFaceRecord
 10
0.0
 20
0.0
 30
0.0
 70
   128
 71
   184
 72
   202
 73
   204
  0
VERTEX
  5
20A
330
44
100
AcDbEntity
  8
New_0
 62
   254
420
 14079192
370
     0
100
AcDbFaceRecord
 10
0.0
 20
0.0
 30
0.0
 70
   128
 71
   192
 72
   194
 73
   196
  0
VERTEX
  5
20B
330
44
100
AcDbEntity
  8
New_0
 62
   254
420
 14079192
370
     0
100
AcDbFaceRecord
 10
0.0
 20
0.0
 30
0.0
 70
   128
 71
   192
 72
   196
 73
   190
  0
VERTEX
  5
20C
330
44
100
AcDbEntity
  8
New_0
 62
   254
420
 14079192
370
     0
100
AcDbFaceRecord
 10
0.0
 20
0.0
 30
0.0
 70
   128
 71
   190
 72
   196
 73
   188
  0
SEQEND
  5
20D
330
44
100
AcDbEntity
  8
New_0
 62
   254
420
 14079192
370
     0
  0
ENDBLK
  5
41
330
3F
100
AcDbEntity
  8
0
100
AcDbBlockEnd
  0
ENDSEC
  0
SECTION
  2
ENTITIES
  0
INSERT
  5
42
330
1F
100
AcDbEntity
  8
New_0
  6
Continuous
 62
   254
420
 14079192
370
     0
100
AcDbBlockReference
  2
Object_4
 10
0.0
 20
0.0
 30
0.0
  0
ENDSEC
  0
SECTION
  2
OBJECTS
  0
DICTIONARY
  5
C
330
0
100
AcDbDictionary
281
     1
  3
ACAD_GROUP
350
D
  3
ACAD_LAYOUT
350
1A
  3
ACAD_MATERIAL
350
3B
  3
ACAD_MLEADERSTYLE
350
237
  3
ACAD_MLINESTYLE
350
17
  3
ACAD_PLOTSETTINGS
350
19
  3
ACAD_PLOTSTYLENAME
350
E
  3
ACAD_TABLESTYLE
350
236
  3
ACAD_VISUALSTYLE
350
2A
  3
AcDbVariableDictionary
350
238
  3
WATERMARKS
350
20E
  0
DICTIONARY
  5
D
102
{ACAD_REACTORS
330
C
102
}
330
C
100
AcDbDictionary
281
     1
  0
DICTIONARY
  5
1A
102
{ACAD_REACTORS
330
C
102
}
330
C
100
AcDbDictionary
281
     1
  3
Layout1
350
1E
  3
Layout2
350
26
  3
Model
350
22
  0
DICTIONARY
  5
3B
102
{ACAD_REACTORS
330
C
102
}
330
C
100
AcDbDictionary
281
     1
  3
ByBlock
350
3D
  3
ByLayer
350
3C
  3
Global
350
3E
  0
DICTIONARY
  5
237
102
{ACAD_REACTORS
330
C
102
}
330
C
100
AcDbDictionary
281
     1
  0
DICTIONARY
  5
17
102
{ACAD_REACTORS
330
C
102
}
330
C
100
AcDbDictionary
281
     1
  3
Standard
350
18
  0
DICTIONARY
  5
19
102
{ACAD_REACTORS
330
C
102
}
330
C
100
AcDbDictionary
281
     1
  0
ACDBDICTIONARYWDFLT
  5
E
102
{ACAD_REACTORS
330
C
102
}
330
C
100
AcDbDictionary
281
     1
  3
Normal
350
F
100
AcDbDictionaryWithDefault
340
F
  0
DICTIONARY
  5
236
102
{ACAD_REACTORS
330
C
102
}
330
C
100
AcDbDictionary
281
     1
  0
DICTIONARY
  5
2A
102
{ACAD_REACTORS
330
C
102
}
330
C
100
AcDbDictionary
281
     1
  3
2dWireframe
350
2F
  3
3D Hidden
350
31
  3
3dWireframe
350
30
  3
Basic
350
32
  3
Brighten
350
36
  3
ColorChange
350
3A
  3
Conceptual
350
34
  3
Dim
350
35
  3
Facepattern
350
39
  3
Flat
350
2B
  3
FlatWithEdges
350
2C
  3
Gouraud
350
2D
  3
GouraudWithEdges
350
2E
  3
Linepattern
350
38
  3
Realistic
350
33
  3
Thicken
350
37
  0
DICTIONARY
  5
238
102
{ACAD_REACTORS
330
C
102
}
330
C
100
AcDbDictionary
281
     1
  3
XCLIPFRAME
350
239
  0
DICTIONARY
  5
20E
102
{ACAD_REACTORS
330
C
102
}
330
C
100
AcDbDictionary
281
     1
  3
AC_WATERMARK
350
20F
  0
LAYOUT
  5
1E
102
{ACAD_REACTORS
330
1A
102
}
330
1A
100
AcDbPlotSettings
  1

  2
none_device
  4

  6

 40
0.0
 41
0.0
 42
0.0
 43
0.0
 44
0.0
 45
0.0
 46
0.0
 47
0.0
 48
0.0
 49
0.0
140
0.0
141
0.0
142
1.0
143
1.0
 70
   688
 72
     0
 73
     0
 74
     5
  7

 75
    16
 76
     0
 77
     2
 78
   300
147
1.0
148
0.0
149
0.0
100
AcDbLayout
  1
Layout1
 70
     1
 71
     1
 10
0.0
 20
0.0
 11
12.0
 21
9.0
 12
0.0
 22
0.0
 32
0.0
 14
1.000000000000000E+20
 24
1.000000000000000E+20
 34
1.000000000000000E+20
 15
-1.000000000000000E+20
 25
-1.000000000000000E+20
 35
-1.000000000000000E+20
146
0.0
 13
0.0
 23
0.0
 33
0.0
 16
1.0
 26
0.0
 36
0.0
 17
0.0
 27
1.0
 37
0.0
 76
     0
330
1B
  0
LAYOUT
  5
26
102
{ACAD_REACTORS
330
1A
102
}
330
1A
100
AcDbPlotSettings
  1

  2
none_device
  4

  6

 40
0.0
 41
0.0
 42
0.0
 43
0.0
 44
0.0
 45
0.0
 46
0.0
 47
0.0
 48
0.0
 49
0.0
140
0.0
141
0.0
142
1.0
143
1.0
 70
   688
 72
     0
 73
     0
 74
     5
  7

 75
    16
 76
     0
 77
     2
 78
   300
147
1.0
148
0.0
149
0.0
100
AcDbLayout
  1
Layout2
 70
     1
 71
     2
 10
0.0
 20
0.0
 11
0.0
 21
0.0
 12
0.0
 22
0.0
 32
0.0
 14
0.0
 24
0.0
 34
0.0
 15
0.0
 25
0.0
 35
0.0
146
0.0
 13
0.0
 23
0.0
 33
0.0
 16
1.0
 26
0.0
 36
0.0
 17
0.0
 27
1.0
 37
0.0
 76
     0
330
23
  0
LAYOUT
  5
22
102
{ACAD_REACTORS
330
1A
102
}
330
1A
100
AcDbPlotSettings
  1

  2
none_device
  4

  6

 40
0.0
 41
0.0
 42
0.0
 43
0.0
 44
0.0
 45
0.0
 46
0.0
 47
0.0
 48
0.0
 49
0.0
140
0.0
141
0.0
142
1.0
143
1.0
 70
  1712
 72
     0
 73
     0
 74
     0
  7

 75
     0
 76
     0
 77
     2
 78
   300
147
1.0
148
0.0
149
0.0
100
AcDbLayout
  1
Model
 70
     1
 71
     0
 10
0.0
 20
0.0
 11
12.0
 21
9.0
 12
0.0
 22
0.0
 32
0.0
 14
1.000000000000000E+20
 24
1.000000000000000E+20
 34
1.000000000000000E+20
 15
-1.000000000000000E+20
 25
-1.000000000000000E+20
 35
-1.000000000000000E+20
146
0.0
 13
0.0
 23
0.0
 33
0.0
 16
1.0
 26
0.0
 36
0.0
 17
0.0
 27
1.0
 37
0.0
 76
     0
330
1F
331
29
  0
MATERIAL
  5
3D
102
{ACAD_REACTORS
330
3B
102
}
102
{ACAD_XDICTIONARY
360
232
102
}
330
3B
100
AcDbMaterial
  1
ByBlock
  0
MATERIAL
  5
3C
102
{ACAD_REACTORS
330
3B
102
}
102
{ACAD_XDICTIONARY
360
230
102
}
330
3B
100
AcDbMaterial
  1
ByLayer
  0
MATERIAL
  5
3E
102
{ACAD_REACTORS
330
3B
102
}
102
{ACAD_XDICTIONARY
360
234
102
}
330
3B
100
AcDbMaterial
  1
Global
  0
MLINESTYLE
  5
18
102
{ACAD_REACTORS
330
17
102
}
330
17
100
AcDbMlineStyle
  2
Standard
 70
     0
  3

 62
   256
 51
90.0
 52
90.0
 71
     2
 49
0.5
 62
   256
  6
BYLAYER
 49
-0.5
 62
   256
  6
BYLAYER
  0
ACDBPLACEHOLDER
  5
F
102
{ACAD_REACTORS
330
E
102
}
330
E
  0
VISUALSTYLE
  5
2F
102
{ACAD_REACTORS
330
2A
102
}
102
{ACAD_XDICTIONARY
360
218
102
}
330
2A
100
AcDbVisualStyle
  2
2dWireframe
 70
     4
 71
     0
 72
     2
 73
     0
 90
        0
 40
-0.6
 41
-30.0
 62
     5
 63
     7
421
 16777215
 74
     1
 91
        4
 64
     7
 65
   257
 75
     1
175
     1
 42
1.0
 92
        0
 66
   257
 43
1.0
 76
     1
 77
     6
 78
     2
 67
     7
 79
     5
170
     0
171
     0
290
     0
174
     0
 93
        1
 44
0.0
173
     0
291
     0
 45
0.0
1001
ACAD
1000
AcDbSavedByObjectVersion
1070
     0
  0
VISUALSTYLE
  5
31
102
{ACAD_REACTORS
330
2A
102
}
102
{ACAD_XDICTIONARY
360
21C
102
}
330
2A
100
AcDbVisualStyle
  2
3D Hidden
 70
     6
 71
     1
 72
     2
 73
     2
 90
        0
 40
-0.6
 41
-30.0
 62
     5
 63
     7
421
 16777215
 74
     2
 91
        2
 64
     7
 65
   257
 75
     2
175
     1
 42
40.0
 92
        0
 66
   257
 43
1.0
 76
     1
 77
     6
 78
     2
 67
     7
 79
     3
170
     0
171
     0
290
     0
174
     0
 93
        1
 44
0.0
173
     0
291
     0
 45
0.0
1001
ACAD
1000
AcDbSavedByObjectVersion
1070
     0
  0
VISUALSTYLE
  5
30
102
{ACAD_REACTORS
330
2A
102
}
102
{ACAD_XDICTIONARY
360
21A
102
}
330
2A
100
AcDbVisualStyle
  2
3dWireframe
 70
     5
 71
     0
 72
     2
 73
     0
 90
        0
 40
-0.6
 41
-30.0
 62
     5
 63
     7
421
 16777215
 74
     1
 91
        4
 64
     7
 65
   257
 75
     1
175
     1
 42
1.0
 92
        0
 66
   257
 43
1.0
 76
     1
 77
     6
 78
     2
 67
     7
 79
     5
170
     0
171
     0
290
     0
174
     0
 93
        1
 44
0.0
173
     0
291
     0
 45
0.0
1001
ACAD
1000
AcDbSavedByObjectVersion
1070
     0
  0
VISUALSTYLE
  5
32
102
{ACAD_REACTORS
330
2A
102
}
102
{ACAD_XDICTIONARY
360
21E
102
}
330
2A
100
AcDbVisualStyle
  2
Basic
 70
     7
 71
     1
 72
     0
 73
     1
 90
        0
 40
-0.6
 41
-30.0
 62
     5
 63
     7
421
 16777215
 74
     0
 91
        4
 64
     7
 65
   257
 75
     1
175
     1
 42
1.0
 92
        8
 66
     7
 43
1.0
 76
     1
 77
     6
 78
     2
 67
     7
 79
     5
170
     0
171
     0
290
     0
174
     0
 93
        1
 44
0.0
173
     0
291
     1
 45
0.0
1001
ACAD
1000
AcDbSavedByObjectVersion
1070
     0
  0
VISUALSTYLE
  5
36
102
{ACAD_REACTORS
330
2A
102
}
102
{ACAD_XDICTIONARY
360
226
102
}
330
2A
100
AcDbVisualStyle
  2
Brighten
 70
    12
 71
     2
 72
     2
 73
     0
 90
        0
 40
-0.6
 41
-30.0
 62
     5
 63
     7
421
 16777215
 74
     1
 91
        4
 64
     7
 65
   257
 75
     1
175
     1
 42
1.0
 92
        8
 66
     7
 43
1.0
 76
     1
 77
     6
 78
     2
 67
     7
 79
     5
170
     0
171
     0
290
     0
174
     0
 93
        1
 44
50.0
173
     0
291
     1
 45
0.0
1001
ACAD
1000
AcDbSavedByObjectVersion
1070
     0
  0
VISUALSTYLE
  5
3A
102
{ACAD_REACTORS
330
2A
102
}
102
{ACAD_XDICTIONARY
360
22E
102
}
330
2A
100
AcDbVisualStyle
  2
ColorChange
 70
    16
 71
     2
 72
     2
 73
     3
 90
        0
 40
-0.6
 41
-30.0
 62
     5
 63
     8
421
  8421504
 74
     1
 91
        4
 64
     7
 65
   257
 75
     1
175
     1
 42
1.0
 92
        8
 66
     8
424
  8421504
 43
1.0
 76
     1
 77
     6
 78
     2
 67
     7
 79
     5
170
     0
171
     0
290
     0
174
     0
 93
        1
 44
0.0
173
     0
291
     1
 45
0.0
1001
ACAD
1000
AcDbSavedByObjectVersion
1070
     0
  0
VISUALSTYLE
  5
34
102
{ACAD_REACTORS
330
2A
102
}
102
{ACAD_XDICTIONARY
360
222
102
}
330
2A
100
AcDbVisualStyle
  2
Conceptual
 70
     9
 71
     3
 72
     2
 73
     0
 90
        0
 40
-0.6
 41
-30.0
 62
     5
 63
     7
421
 16777215
 74
     2
 91
        2
 64
     7
 65
   257
 75
     1
175
     1
 42
40.0
 92
        8
 66
     7
 43
1.0
 76
     1
 77
     6
 78
     2
 67
     7
 79
     3
170
     0
171
     0
290
     0
174
     0
 93
        1
 44
0.0
173
     0
291
     0
 45
0.0
1001
ACAD
1000
AcDbSavedByObjectVersion
1070
     0
  0
VISUALSTYLE
  5
35
102
{ACAD_REACTORS
330
2A
102
}
102
{ACAD_XDICTIONARY
360
224
102
}
330
2A
100
AcDbVisualStyle
  2
Dim
 70
    11
 71
     2
 72
     2
 73
     0
 90
        0
 40
-0.6
 41
-30.0
 62
     5
 63
     7
421
 16777215
 74
     1
 91
        4
 64
     7
 65
   257
 75
     1
175
     1
 42
1.0
 92
        8
 66
     7
 43
1.0
 76
     1
 77
     6
 78
     2
 67
     7
 79
     5
170
     0
171
     0
290
     0
174
     0
 93
        1
 44
-50.0
173
     0
291
     1
 45
0.0
1001
ACAD
1000
AcDbSavedByObjectVersion
1070
     0
  0
VISUALSTYLE
  5
39
102
{ACAD_REACTORS
330
2A
102
}
102
{ACAD_XDICTIONARY
360
22C
102
}
330
2A
100
AcDbVisualStyle
  2
Facepattern
 70
    15
 71
     2
 72
     2
 73
     0
 90
        0
 40
-0.6
 41
-30.0
 62
     5
 63
     7
421
 16777215
 74
     1
 91
        4
 64
     7
 65
   257
 75
     1
175
     1
 42
1.0
 92
        8
 66
     7
 43
1.0
 76
     1
 77
     6
 78
     2
 67
     7
 79
     5
170
     0
171
     0
290
     0
174
     0
 93
        1
 44
0.0
173
     0
291
     1
 45
0.0
1001
ACAD
1000
AcDbSavedByObjectVersion
1070
     0
  0
VISUALSTYLE
  5
2B
102
{ACAD_REACTORS
330
2A
102
}
102
{ACAD_XDICTIONARY
360
210
102
}
330
2A
100
AcDbVisualStyle
  2
Flat
 70
     0
 71
     2
 72
     1
 73
     1
 90
        2
 40
-0.6
 41
30.0
 62
     5
 63
     7
421
 16777215
 74
     0
 91
        4
 64
     7
 65
   257
 75
     1
175
     1
 42
1.0
 92
        8
 66
     7
 43
1.0
 76
     1
 77
     6
 78
     2
 67
     7
 79
     5
170
     0
171
     0
290
     0
174
     0
 93
       13
 44
0.0
173
     0
291
     1
 45
0.0
1001
ACAD
1000
AcDbSavedByObjectVersion
1070
     0
  0
VISUALSTYLE
  5
2C
102
{ACAD_REACTORS
330
2A
102
}
102
{ACAD_XDICTIONARY
360
212
102
}
330
2A
100
AcDbVisualStyle
  2
FlatWithEdges
 70
     1
 71
     2
 72
     1
 73
     1
 90
        2
 40
-0.6
 41
30.0
 62
     5
 63
     7
421
 16777215
 74
     1
 91
        4
 64
     7
 65
   257
 75
     1
175
     1
 42
1.0
 92
        0
 66
   257
 43
1.0
 76
     1
 77
     6
 78
     2
 67
     7
 79
     5
170
     0
171
     0
290
     0
174
     0
 93
       13
 44
0.0
173
     0
291
     1
 45
0.0
1001
ACAD
1000
AcDbSavedByObjectVersion
1070
     0
  0
VISUALSTYLE
  5
2D
102
{ACAD_REACTORS
330
2A
102
}
102
{ACAD_XDICTIONARY
360
214
102
}
330
2A
100
AcDbVisualStyle
  2
Gouraud
 70
     2
 71
     2
 72
     2
 73
     1
 90
        2
 40
-0.6
 41
30.0
 62
     5
 63
     7
421
 16777215
 74
     0
 91
        4
 64
     7
 65
   257
 75
     1
175
     1
 42
1.0
 92
        0
 66
     7
 43
1.0
 76
     1
 77
     6
 78
     2
 67
     7
 79
     5
170
     0
171
     0
290
     0
174
     0
 93
       13
 44
0.0
173
     0
291
     1
 45
0.0
1001
ACAD
1000
AcDbSavedByObjectVersion
1070
     0
  0
VISUALSTYLE
  5
2E
102
{ACAD_REACTORS
330
2A
102
}
102
{ACAD_XDICTIONARY
360
216
102
}
330
2A
100
AcDbVisualStyle
  2
GouraudWithEdges
 70
     3
 71
     2
 72
     2
 73
     1
 90
        2
 40
-0.6
 41
30.0
 62
     5
 63
     7
421
 16777215
 74
     1
 91
        4
 64
     7
 65
   257
 75
     1
175
     1
 42
1.0
 92
        0
 66
   257
 43
1.0
 76
     1
 77
     6
 78
     2
 67
     7
 79
     5
170
     0
171
     0
290
     0
174
     0
 93
       13
 44
0.0
173
     0
291
     1
 45
0.0
1001
ACAD
1000
AcDbSavedByObjectVersion
1070
     0
  0
VISUALSTYLE
  5
38
102
{ACAD_REACTORS
330
2A
102
}
102
{ACAD_XDICTIONARY
360
22A
102
}
330
2A
100
AcDbVisualStyle
  2
Linepattern
 70
    14
 71
     2
 72
     2
 73
     0
 90
        0
 40
-0.6
 41
-30.0
 62
     5
 63
     7
421
 16777215
 74
     1
 91
        4
 64
     7
 65
   257
 75
     7
175
     7
 42
1.0
 92
        8
 66
     7
 43
1.0
 76
     1
 77
     6
 78
     2
 67
     7
 79
     5
170
     0
171
     0
290
     0
174
     0
 93
        1
 44
0.0
173
     0
291
     1
 45
0.0
1001
ACAD
1000
AcDbSavedByObjectVersion
1070
     0
  0
VISUALSTYLE
  5
33
102
{ACAD_REACTORS
330
2A
102
}
102
{ACAD_XDICTIONARY
360
220
102
}
330
2A
100
AcDbVisualStyle
  2
Realistic
 70
     8
 71
     2
 72
     2
 73
     0
 90
        0
 40
-0.6
 41
-30.0
 62
     5
 63
     7
421
 16777215
 74
     1
 91
        0
 64
     7
 65
   257
 75
     1
175
     1
 42
1.0
 92
        8
 66
     8
424
  7895160
 43
1.0
 76
     1
 77
     6
 78
     2
 67
     7
 79
     5
170
     0
171
     0
290
     0
174
     0
 93
       13
 44
0.0
173
     0
291
     0
 45
0.0
1001
ACAD
1000
AcDbSavedByObjectVersion
1070
     0
  0
VISUALSTYLE
  5
37
102
{ACAD_REACTORS
330
2A
102
}
102
{ACAD_XDICTIONARY
360
228
102
}
330
2A
100
AcDbVisualStyle
  2
Thicken
 70
    13
 71
     2
 72
     2
 73
     0
 90
        0
 40
-0.6
 41
-30.0
 62
     5
 63
     7
421
 16777215
 74
     1
 91
        4
 64
     7
 65
   257
 75
     1
175
     1
 42
1.0
 92
       12
 66
     7
 43
1.0
 76
     1
 77
     6
 78
     2
 67
     7
 79
     5
170
     0
171
     0
290
     0
174
     0
 93
        1
 44
0.0
173
     0
291
     1
 45
0.0
1001
ACAD
1000
AcDbSavedByObjectVersion
1070
     0
  0
DICTIONARYVAR
  5
239
102
{ACAD_REACTORS
330
238
102
}
330
238
100
DictionaryVariables
280
     0
  1
0
  0
XRECORD
  5
20F
102
{ACAD_REACTORS
330
20E
102
}
330
20E
100
AcDbXrecord
280
     1
1000
This DWG file was created in ArchiCAD(TM)
  0
DICTIONARY
  5
232
330
3D
100
AcDbDictionary
280
     1
281
     1
  3
ACAD_XREC_ROUNDTRIP
360
233
  0
DICTIONARY
  5
230
330
3C
100
AcDbDictionary
280
     1
281
     1
  3
ACAD_XREC_ROUNDTRIP
360
231
  0
DICTIONARY
  5
234
330
3E
100
AcDbDictionary
280
     1
281
     1
  3
ACAD_XREC_ROUNDTRIP
360
235
  0
DICTIONARY
  5
218
330
2F
100
AcDbDictionary
280
     1
281
     1
  3
ACAD_XREC_ROUNDTRIP
360
219
  0
DICTIONARY
  5
21C
330
31
100
AcDbDictionary
280
     1
281
     1
  3
ACAD_XREC_ROUNDTRIP
360
21D
  0
DICTIONARY
  5
21A
330
30
100
AcDbDictionary
280
     1
281
     1
  3
ACAD_XREC_ROUNDTRIP
360
21B
  0
DICTIONARY
  5
21E
330
32
100
AcDbDictionary
280
     1
281
     1
  3
ACAD_XREC_ROUNDTRIP
360
21F
  0
DICTIONARY
  5
226
330
36
100
AcDbDictionary
280
     1
281
     1
  3
ACAD_XREC_ROUNDTRIP
360
227
  0
DICTIONARY
  5
22E
330
3A
100
AcDbDictionary
280
     1
281
     1
  3
ACAD_XREC_ROUNDTRIP
360
22F
  0
DICTIONARY
  5
222
330
34
100
AcDbDictionary
280
     1
281
     1
  3
ACAD_XREC_ROUNDTRIP
360
223
  0
DICTIONARY
  5
224
330
35
100
AcDbDictionary
280
     1
281
     1
  3
ACAD_XREC_ROUNDTRIP
360
225
  0
DICTIONARY
  5
22C
330
39
100
AcDbDictionary
280
     1
281
     1
  3
ACAD_XREC_ROUNDTRIP
360
22D
  0
DICTIONARY
  5
210
330
2B
100
AcDbDictionary
280
     1
281
     1
  3
ACAD_XREC_ROUNDTRIP
360
211
  0
DICTIONARY
  5
212
330
2C
100
AcDbDictionary
280
     1
281
     1
  3
ACAD_XREC_ROUNDTRIP
360
213
  0
DICTIONARY
  5
214
330
2D
100
AcDbDictionary
280
     1
281
     1
  3
ACAD_XREC_ROUNDTRIP
360
215
  0
DICTIONARY
  5
216
330
2E
100
AcDbDictionary
280
     1
281
     1
  3
ACAD_XREC_ROUNDTRIP
360
217
  0
DICTIONARY
  5
22A
330
38
100
AcDbDictionary
280
     1
281
     1
  3
ACAD_XREC_ROUNDTRIP
360
22B
  0
DICTIONARY
  5
220
330
33
100
AcDbDictionary
280
     1
281
     1
  3
ACAD_XREC_ROUNDTRIP
360
221
  0
DICTIONARY
  5
228
330
37
100
AcDbDictionary
280
     1
281
     1
  3
ACAD_XREC_ROUNDTRIP
360
229
  0
XRECORD
  5
233
102
{ACAD_REACTORS
330
232
102
}
330
232
100
AcDbXrecord
280
     1
102
MATERIAL
148
0.0
149
0.0
149
0.0
 93
        0
 94
      127
282
     0
 72
     1
 77
     1
171
     1
175
     1
179
     1
273
     0
  0
XRECORD
  5
231
102
{ACAD_REACTORS
330
230
102
}
330
230
100
AcDbXrecord
280
     1
102
MATERIAL
148
0.0
149
0.0
149
0.0
 93
        0
 94
      127
282
     0
 72
     1
 77
     1
171
     1
175
     1
179
     1
273
     0
  0
XRECORD
  5
235
102
{ACAD_REACTORS
330
234
102
}
330
234
100
AcDbXrecord
280
     1
102
MATERIAL
148
0.0
149
0.0
149
0.0
 93
        0
 94
      127
282
     0
 72
     1
 77
     1
171
     1
175
     1
179
     1
273
     0
  0
XRECORD
  5
219
102
{ACAD_REACTORS
330
218
102
}
330
218
100
AcDbXrecord
280
     1
102
RTVSPropertyOp0
 70
     1
102
RTVSPropertyOp1
 70
     1
102
RTVSPropertyOp2
 70
     1
102
RTVSPropertyOp3
 70
     1
102
RTVSPropertyOp4
 70
     1
102
RTVSPropertyOp5
 70
     1
102
RTVSPropertyOp6
 70
     1
102
RTVSPropertyOp7
 70
     1
102
RTVSPropertyOp8
 70
     1
102
RTVSPropertyOp9
 70
     1
102
RTVSPropertyOp10
 70
     1
102
RTVSPropertyOp11
 70
     1
102
RTVSPropertyOp12
 70
     1
102
RTVSPropertyOp13
 70
     1
102
RTVSPropertyOp14
 70
     1
102
RTVSPropertyOp15
 70
     1
102
RTVSPropertyOp16
 70
     1
102
RTVSPropertyOp17
 70
     1
102
RTVSPropertyOp18
 70
     1
102
RTVSPropertyOp19
 70
     1
102
RTVSPropertyOp20
 70
     1
102
RTVSPropertyOp21
 70
     1
102
RTVSPropertyOp22
 70
     1
102
RTVSPropertyOp23
 70
     1
102
RTVSPropertyOp24
 70
     1
102
RTVSPropertyOp25
 70
     1
102
RTVSPropertyOp26
 70
     1
102
RTVSPropertyOp27
 70
     1
  0
XRECORD
  5
21D
102
{ACAD_REACTORS
330
21C
102
}
330
21C
100
AcDbXrecord
280
     1
102
RTVSPropertyOp0
 70
     1
102
RTVSPropertyOp1
 70
     1
102
RTVSPropertyOp2
 70
     1
102
RTVSPropertyOp3
 70
     1
102
RTVSPropertyOp4
 70
     1
102
RTVSPropertyOp5
 70
     1
102
RTVSPropertyOp6
 70
     1
102
RTVSPropertyOp7
 70
     1
102
RTVSPropertyOp8
 70
     1
102
RTVSPropertyOp9
 70
     1
102
RTVSPropertyOp10
 70
     1
102
RTVSPropertyOp11
 70
     1
102
RTVSPropertyOp12
 70
     1
102
RTVSPropertyOp13
 70
     1
102
RTVSPropertyOp14
 70
     1
102
RTVSPropertyOp15
 70
     1
102
RTVSPropertyOp16
 70
     1
102
RTVSPropertyOp17
 70
     1
102
RTVSPropertyOp18
 70
     1
102
RTVSPropertyOp19
 70
     1
102
RTVSPropertyOp20
 70
     1
102
RTVSPropertyOp21
 70
     1
102
RTVSPropertyOp22
 70
     1
102
RTVSPropertyOp23
 70
     1
102
RTVSPropertyOp24
 70
     1
102
RTVSPropertyOp25
 70
     1
102
RTVSPropertyOp26
 70
     1
102
RTVSPropertyOp27
 70
     1
  0
XRECORD
  5
21B
102
{ACAD_REACTORS
330
21A
102
}
330
21A
100
AcDbXrecord
280
     1
102
RTVSPropertyOp0
 70
     1
102
RTVSPropertyOp1
 70
     1
102
RTVSPropertyOp2
 70
     1
102
RTVSPropertyOp3
 70
     1
102
RTVSPropertyOp4
 70
     1
102
RTVSPropertyOp5
 70
     1
102
RTVSPropertyOp6
 70
     1
102
RTVSPropertyOp7
 70
     1
102
RTVSPropertyOp8
 70
     1
102
RTVSPropertyOp9
 70
     1
102
RTVSPropertyOp10
 70
     1
102
RTVSPropertyOp11
 70
     1
102
RTVSPropertyOp12
 70
     1
102
RTVSPropertyOp13
 70
     1
102
RTVSPropertyOp14
 70
     1
102
RTVSPropertyOp15
 70
     1
102
RTVSPropertyOp16
 70
     1
102
RTVSPropertyOp17
 70
     1
102
RTVSPropertyOp18
 70
     1
102
RTVSPropertyOp19
 70
     1
102
RTVSPropertyOp20
 70
     1
102
RTVSPropertyOp21
 70
     1
102
RTVSPropertyOp22
 70
     1
102
RTVSPropertyOp23
 70
     1
102
RTVSPropertyOp24
 70
     1
102
RTVSPropertyOp25
 70
     1
102
RTVSPropertyOp26
 70
     1
102
RTVSPropertyOp27
 70
     1
  0
XRECORD
  5
21F
102
{ACAD_REACTORS
330
21E
102
}
330
21E
100
AcDbXrecord
280
     1
102
RTVSPropertyOp0
 70
     1
102
RTVSPropertyOp1
 70
     1
102
RTVSPropertyOp2
 70
     1
102
RTVSPropertyOp3
 70
     1
102
RTVSPropertyOp4
 70
     1
102
RTVSPropertyOp5
 70
     1
102
RTVSPropertyOp6
 70
     1
102
RTVSPropertyOp7
 70
     1
102
RTVSPropertyOp8
 70
     1
102
RTVSPropertyOp9
 70
     1
102
RTVSPropertyOp10
 70
     1
102
RTVSPropertyOp11
 70
     1
102
RTVSPropertyOp12
 70
     1
102
RTVSPropertyOp13
 70
     1
102
RTVSPropertyOp14
 70
     1
102
RTVSPropertyOp15
 70
     1
102
RTVSPropertyOp16
 70
     1
102
RTVSPropertyOp17
 70
     1
102
RTVSPropertyOp18
 70
     1
102
RTVSPropertyOp19
 70
     1
102
RTVSPropertyOp20
 70
     1
102
RTVSPropertyOp21
 70
     1
102
RTVSPropertyOp22
 70
     1
102
RTVSPropertyOp23
 70
     1
102
RTVSPropertyOp24
 70
     1
102
RTVSPropertyOp25
 70
     1
102
RTVSPropertyOp26
 70
     1
102
RTVSPropertyOp27
 70
     1
  0
XRECORD
  5
227
102
{ACAD_REACTORS
330
226
102
}
330
226
100
AcDbXrecord
280
     1
102
RTVSPropertyOp0
 70
     1
102
RTVSPropertyOp1
 70
     1
102
RTVSPropertyOp2
 70
     1
102
RTVSPropertyOp3
 70
     1
102
RTVSPropertyOp4
 70
     1
102
RTVSPropertyOp5
 70
     1
102
RTVSPropertyOp6
 70
     1
102
RTVSPropertyOp7
 70
     1
102
RTVSPropertyOp8
 70
     1
102
RTVSPropertyOp9
 70
     1
102
RTVSPropertyOp10
 70
     1
102
RTVSPropertyOp11
 70
     1
102
RTVSPropertyOp12
 70
     1
102
RTVSPropertyOp13
 70
     1
102
RTVSPropertyOp14
 70
     1
102
RTVSPropertyOp15
 70
     1
102
RTVSPropertyOp16
 70
     1
102
RTVSPropertyOp17
 70
     1
102
RTVSPropertyOp18
 70
     1
102
RTVSPropertyOp19
 70
     1
102
RTVSPropertyOp20
 70
     1
102
RTVSPropertyOp21
 70
     1
102
RTVSPropertyOp22
 70
     1
102
RTVSPropertyOp23
 70
     1
102
RTVSPropertyOp24
 70
     1
102
RTVSPropertyOp25
 70
     1
102
RTVSPropertyOp26
 70
     1
102
RTVSPropertyOp27
 70
     1
  0
XRECORD
  5
22F
102
{ACAD_REACTORS
330
22E
102
}
330
22E
100
AcDbXrecord
280
     1
102
RTVSPropertyOp0
 70
     1
102
RTVSPropertyOp1
 70
     1
102
RTVSPropertyOp2
 70
     1
102
RTVSPropertyOp3
 70
     1
102
RTVSPropertyOp4
 70
     1
102
RTVSPropertyOp5
 70
     1
102
RTVSPropertyOp6
 70
     1
102
RTVSPropertyOp7
 70
     1
102
RTVSPropertyOp8
 70
     1
102
RTVSPropertyOp9
 70
     1
102
RTVSPropertyOp10
 70
     1
102
RTVSPropertyOp11
 70
     1
102
RTVSPropertyOp12
 70
     1
102
RTVSPropertyOp13
 70
     1
102
RTVSPropertyOp14
 70
     1
102
RTVSPropertyOp15
 70
     1
102
RTVSPropertyOp16
 70
     1
102
RTVSPropertyOp17
 70
     1
102
RTVSPropertyOp18
 70
     1
102
RTVSPropertyOp19
 70
     1
102
RTVSPropertyOp20
 70
     1
102
RTVSPropertyOp21
 70
     1
102
RTVSPropertyOp22
 70
     1
102
RTVSPropertyOp23
 70
     1
102
RTVSPropertyOp24
 70
     1
102
RTVSPropertyOp25
 70
     1
102
RTVSPropertyOp26
 70
     1
102
RTVSPropertyOp27
 70
     1
  0
XRECORD
  5
223
102
{ACAD_REACTORS
330
222
102
}
330
222
100
AcDbXrecord
280
     1
102
RTVSPropertyOp0
 70
     1
102
RTVSPropertyOp1
 70
     1
102
RTVSPropertyOp2
 70
     1
102
RTVSPropertyOp3
 70
     1
102
RTVSPropertyOp4
 70
     1
102
RTVSPropertyOp5
 70
     1
102
RTVSPropertyOp6
 70
     1
102
RTVSPropertyOp7
 70
     1
102
RTVSPropertyOp8
 70
     1
102
RTVSPropertyOp9
 70
     1
102
RTVSPropertyOp10
 70
     1
102
RTVSPropertyOp11
 70
     1
102
RTVSPropertyOp12
 70
     1
102
RTVSPropertyOp13
 70
     1
102
RTVSPropertyOp14
 70
     1
102
RTVSPropertyOp15
 70
     1
102
RTVSPropertyOp16
 70
     1
102
RTVSPropertyOp17
 70
     1
102
RTVSPropertyOp18
 70
     1
102
RTVSPropertyOp19
 70
     1
102
RTVSPropertyOp20
 70
     1
102
RTVSPropertyOp21
 70
     1
102
RTVSPropertyOp22
 70
     1
102
RTVSPropertyOp23
 70
     1
102
RTVSPropertyOp24
 70
     1
102
RTVSPropertyOp25
 70
     1
102
RTVSPropertyOp26
 70
     1
102
RTVSPropertyOp27
 70
     1
  0
XRECORD
  5
225
102
{ACAD_REACTORS
330
224
102
}
330
224
100
AcDbXrecord
280
     1
102
RTVSPropertyOp0
 70
     1
102
RTVSPropertyOp1
 70
     1
102
RTVSPropertyOp2
 70
     1
102
RTVSPropertyOp3
 70
     1
102
RTVSPropertyOp4
 70
     1
102
RTVSPropertyOp5
 70
     1
102
RTVSPropertyOp6
 70
     1
102
RTVSPropertyOp7
 70
     1
102
RTVSPropertyOp8
 70
     1
102
RTVSPropertyOp9
 70
     1
102
RTVSPropertyOp10
 70
     1
102
RTVSPropertyOp11
 70
     1
102
RTVSPropertyOp12
 70
     1
102
RTVSPropertyOp13
 70
     1
102
RTVSPropertyOp14
 70
     1
102
RTVSPropertyOp15
 70
     1
102
RTVSPropertyOp16
 70
     1
102
RTVSPropertyOp17
 70
     1
102
RTVSPropertyOp18
 70
     1
102
RTVSPropertyOp19
 70
     1
102
RTVSPropertyOp20
 70
     1
102
RTVSPropertyOp21
 70
     1
102
RTVSPropertyOp22
 70
     1
102
RTVSPropertyOp23
 70
     1
102
RTVSPropertyOp24
 70
     1
102
RTVSPropertyOp25
 70
     1
102
RTVSPropertyOp26
 70
     1
102
RTVSPropertyOp27
 70
     1
  0
XRECORD
  5
22D
102
{ACAD_REACTORS
330
22C
102
}
330
22C
100
AcDbXrecord
280
     1
102
RTVSPropertyOp0
 70
     1
102
RTVSPropertyOp1
 70
     1
102
RTVSPropertyOp2
 70
     1
102
RTVSPropertyOp3
 70
     1
102
RTVSPropertyOp4
 70
     1
102
RTVSPropertyOp5
 70
     1
102
RTVSPropertyOp6
 70
     1
102
RTVSPropertyOp7
 70
     1
102
RTVSPropertyOp8
 70
     1
102
RTVSPropertyOp9
 70
     1
102
RTVSPropertyOp10
 70
     1
102
RTVSPropertyOp11
 70
     1
102
RTVSPropertyOp12
 70
     1
102
RTVSPropertyOp13
 70
     1
102
RTVSPropertyOp14
 70
     1
102
RTVSPropertyOp15
 70
     1
102
RTVSPropertyOp16
 70
     1
102
RTVSPropertyOp17
 70
     1
102
RTVSPropertyOp18
 70
     1
102
RTVSPropertyOp19
 70
     1
102
RTVSPropertyOp20
 70
     1
102
RTVSPropertyOp21
 70
     1
102
RTVSPropertyOp22
 70
     1
102
RTVSPropertyOp23
 70
     1
102
RTVSPropertyOp24
 70
     1
102
RTVSPropertyOp25
 70
     1
102
RTVSPropertyOp26
 70
     1
102
RTVSPropertyOp27
 70
     1
  0
XRECORD
  5
211
102
{ACAD_REACTORS
330
210
102
}
330
210
100
AcDbXrecord
280
     1
102
RTVSPropertyOp0
 70
     1
102
RTVSPropertyOp1
 70
     1
102
RTVSPropertyOp2
 70
     1
102
RTVSPropertyOp3
 70
     1
102
RTVSPropertyOp4
 70
     1
102
RTVSPropertyOp5
 70
     1
102
RTVSPropertyOp6
 70
     1
102
RTVSPropertyOp7
 70
     1
102
RTVSPropertyOp8
 70
     1
102
RTVSPropertyOp9
 70
     1
102
RTVSPropertyOp10
 70
     1
102
RTVSPropertyOp11
 70
     1
102
RTVSPropertyOp12
 70
     1
102
RTVSPropertyOp13
 70
     1
102
RTVSPropertyOp14
 70
     1
102
RTVSPropertyOp15
 70
     1
102
RTVSPropertyOp16
 70
     1
102
RTVSPropertyOp17
 70
     1
102
RTVSPropertyOp18
 70
     1
102
RTVSPropertyOp19
 70
     1
102
RTVSPropertyOp20
 70
     1
102
RTVSPropertyOp21
 70
     1
102
RTVSPropertyOp22
 70
     1
102
RTVSPropertyOp23
 70
     1
102
RTVSPropertyOp24
 70
     1
102
RTVSPropertyOp25
 70
     1
102
RTVSPropertyOp26
 70
     1
102
RTVSPropertyOp27
 70
     1
  0
XRECORD
  5
213
102
{ACAD_REACTORS
330
212
102
}
330
212
100
AcDbXrecord
280
     1
102
RTVSPropertyOp0
 70
     1
102
RTVSPropertyOp1
 70
     1
102
RTVSPropertyOp2
 70
     1
102
RTVSPropertyOp3
 70
     1
102
RTVSPropertyOp4
 70
     1
102
RTVSPropertyOp5
 70
     1
102
RTVSPropertyOp6
 70
     1
102
RTVSPropertyOp7
 70
     1
102
RTVSPropertyOp8
 70
     1
102
RTVSPropertyOp9
 70
     1
102
RTVSPropertyOp10
 70
     1
102
RTVSPropertyOp11
 70
     1
102
RTVSPropertyOp12
 70
     1
102
RTVSPropertyOp13
 70
     1
102
RTVSPropertyOp14
 70
     1
102
RTVSPropertyOp15
 70
     1
102
RTVSPropertyOp16
 70
     1
102
RTVSPropertyOp17
 70
     1
102
RTVSPropertyOp18
 70
     1
102
RTVSPropertyOp19
 70
     1
102
RTVSPropertyOp20
 70
     1
102
RTVSPropertyOp21
 70
     1
102
RTVSPropertyOp22
 70
     1
102
RTVSPropertyOp23
 70
     1
102
RTVSPropertyOp24
 70
     1
102
RTVSPropertyOp25
 70
     1
102
RTVSPropertyOp26
 70
     1
102
RTVSPropertyOp27
 70
     1
  0
XRECORD
  5
215
102
{ACAD_REACTORS
330
214
102
}
330
214
100
AcDbXrecord
280
     1
102
RTVSPropertyOp0
 70
     1
102
RTVSPropertyOp1
 70
     1
102
RTVSPropertyOp2
 70
     1
102
RTVSPropertyOp3
 70
     1
102
RTVSPropertyOp4
 70
     1
102
RTVSPropertyOp5
 70
     1
102
RTVSPropertyOp6
 70
     1
102
RTVSPropertyOp7
 70
     1
102
RTVSPropertyOp8
 70
     1
102
RTVSPropertyOp9
 70
     1
102
RTVSPropertyOp10
 70
     1
102
RTVSPropertyOp11
 70
     1
102
RTVSPropertyOp12
 70
     1
102
RTVSPropertyOp13
 70
     1
102
RTVSPropertyOp14
 70
     1
102
RTVSPropertyOp15
 70
     1
102
RTVSPropertyOp16
 70
     1
102
RTVSPropertyOp17
 70
     1
102
RTVSPropertyOp18
 70
     1
102
RTVSPropertyOp19
 70
     1
102
RTVSPropertyOp20
 70
     1
102
RTVSPropertyOp21
 70
     1
102
RTVSPropertyOp22
 70
     1
102
RTVSPropertyOp23
 70
     1
102
RTVSPropertyOp24
 70
     1
102
RTVSPropertyOp25
 70
     1
102
RTVSPropertyOp26
 70
     1
102
RTVSPropertyOp27
 70
     1
  0
XRECORD
  5
217
102
{ACAD_REACTORS
330
216
102
}
330
216
100
AcDbXrecord
280
     1
102
RTVSPropertyOp0
 70
     1
102
RTVSPropertyOp1
 70
     1
102
RTVSPropertyOp2
 70
     1
102
RTVSPropertyOp3
 70
     1
102
RTVSPropertyOp4
 70
     1
102
RTVSPropertyOp5
 70
     1
102
RTVSPropertyOp6
 70
     1
102
RTVSPropertyOp7
 70
     1
102
RTVSPropertyOp8
 70
     1
102
RTVSPropertyOp9
 70
     1
102
RTVSPropertyOp10
 70
     1
102
RTVSPropertyOp11
 70
     1
102
RTVSPropertyOp12
 70
     1
102
RTVSPropertyOp13
 70
     1
102
RTVSPropertyOp14
 70
     1
102
RTVSPropertyOp15
 70
     1
102
RTVSPropertyOp16
 70
     1
102
RTVSPropertyOp17
 70
     1
102
RTVSPropertyOp18
 70
     1
102
RTVSPropertyOp19
 70
     1
102
RTVSPropertyOp20
 70
     1
102
RTVSPropertyOp21
 70
     1
102
RTVSPropertyOp22
 70
     1
102
RTVSPropertyOp23
 70
     1
102
RTVSPropertyOp24
 70
     1
102
RTVSPropertyOp25
 70
     1
102
RTVSPropertyOp26
 70
     1
102
RTVSPropertyOp27
 70
     1
  0
XRECORD
  5
22B
102
{ACAD_REACTORS
330
22A
102
}
330
22A
100
AcDbXrecord
280
     1
102
RTVSPropertyOp0
 70
     1
102
RTVSPropertyOp1
 70
     1
102
RTVSPropertyOp2
 70
     1
102
RTVSPropertyOp3
 70
     1
102
RTVSPropertyOp4
 70
     1
102
RTVSPropertyOp5
 70
     1
102
RTVSPropertyOp6
 70
     1
102
RTVSPropertyOp7
 70
     1
102
RTVSPropertyOp8
 70
     1
102
RTVSPropertyOp9
 70
     1
102
RTVSPropertyOp10
 70
     1
102
RTVSPropertyOp11
 70
     1
102
RTVSPropertyOp12
 70
     1
102
RTVSPropertyOp13
 70
     1
102
RTVSPropertyOp14
 70
     1
102
RTVSPropertyOp15
 70
     1
102
RTVSPropertyOp16
 70
     1
102
RTVSPropertyOp17
 70
     1
102
RTVSPropertyOp18
 70
     1
102
RTVSPropertyOp19
 70
     1
102
RTVSPropertyOp20
 70
     1
102
RTVSPropertyOp21
 70
     1
102
RTVSPropertyOp22
 70
     1
102
RTVSPropertyOp23
 70
     1
102
RTVSPropertyOp24
 70
     1
102
RTVSPropertyOp25
 70
     1
102
RTVSPropertyOp26
 70
     1
102
RTVSPropertyOp27
 70
     1
  0
XRECORD
  5
221
102
{ACAD_REACTORS
330
220
102
}
330
220
100
AcDbXrecord
280
     1
102
RTVSPropertyOp0
 70
     1
102
RTVSPropertyOp1
 70
     1
102
RTVSPropertyOp2
 70
     1
102
RTVSPropertyOp3
 70
     1
102
RTVSPropertyOp4
 70
     1
102
RTVSPropertyOp5
 70
     1
102
RTVSPropertyOp6
 70
     1
102
RTVSPropertyOp7
 70
     1
102
RTVSPropertyOp8
 70
     1
102
RTVSPropertyOp9
 70
     1
102
RTVSPropertyOp10
 70
     1
102
RTVSPropertyOp11
 70
     1
102
RTVSPropertyOp12
 70
     1
102
RTVSPropertyOp13
 70
     1
102
RTVSPropertyOp14
 70
     1
102
RTVSPropertyOp15
 70
     1
102
RTVSPropertyOp16
 70
     1
102
RTVSPropertyOp17
 70
     1
102
RTVSPropertyOp18
 70
     1
102
RTVSPropertyOp19
 70
     1
102
RTVSPropertyOp20
 70
     1
102
RTVSPropertyOp21
 70
     1
102
RTVSPropertyOp22
 70
     1
102
RTVSPropertyOp23
 70
     1
102
RTVSPropertyOp24
 70
     1
102
RTVSPropertyOp25
 70
     1
102
RTVSPropertyOp26
 70
     1
102
RTVSPropertyOp27
 70
     1
  0
XRECORD
  5
229
102
{ACAD_REACTORS
330
228
102
}
330
228
100
AcDbXrecord
280
     1
102
RTVSPropertyOp0
 70
     1
102
RTVSPropertyOp1
 70
     1
102
RTVSPropertyOp2
 70
     1
102
RTVSPropertyOp3
 70
     1
102
RTVSPropertyOp4
 70
     1
102
RTVSPropertyOp5
 70
     1
102
RTVSPropertyOp6
 70
     1
102
RTVSPropertyOp7
 70
     1
102
RTVSPropertyOp8
 70
     1
102
RTVSPropertyOp9
 70
     1
102
RTVSPropertyOp10
 70
     1
102
RTVSPropertyOp11
 70
     1
102
RTVSPropertyOp12
 70
     1
102
RTVSPropertyOp13
 70
     1
102
RTVSPropertyOp14
 70
     1
102
RTVSPropertyOp15
 70
     1
102
RTVSPropertyOp16
 70
     1
102
RTVSPropertyOp17
 70
     1
102
RTVSPropertyOp18
 70
     1
102
RTVSPropertyOp19
 70
     1
102
RTVSPropertyOp20
 70
     1
102
RTVSPropertyOp21
 70
     1
102
RTVSPropertyOp22
 70
     1
102
RTVSPropertyOp23
 70
     1
102
RTVSPropertyOp24
 70
     1
102
RTVSPropertyOp25
 70
     1
102
RTVSPropertyOp26
 70
     1
102
RTVSPropertyOp27
 70
     1
  0
ENDSEC
  0
EOF
